<?xml version="1.0" standalone="no"?>
<!DOCTYPE svg PUBLIC "-//W3C//DTD SVG 20010904//EN"
 "http://www.w3.org/TR/2001/REC-SVG-20010904/DTD/svg10.dtd">
<svg version="1.0" xmlns="http://www.w3.org/2000/svg"
 width="300.000000pt" height="250.000000pt" viewBox="0 0 300.000000 250.000000"
 preserveAspectRatio="xMidYMid meet">

<g transform="translate(0.000000,250.000000) scale(0.100000,-0.100000)"
fill="#000000" stroke="none">
<path d="M50 1250 l0 -1210 1450 0 1450 0 0 1210 0 1210 -1450 0 -1450 0 0
-1210z m1169 969 c26 -9 31 -16 31 -44 0 -48 -17 -52 -37 -8 -17 35 -22 38
-65 41 -59 4 -91 -22 -86 -71 3 -27 13 -38 68 -73 97 -61 140 -105 140 -144 0
-103 -98 -162 -211 -128 -38 11 -39 12 -39 60 0 58 13 62 29 8 13 -45 34 -60
84 -60 41 0 82 30 91 65 11 42 -18 81 -87 119 -104 59 -134 103 -116 172 18
64 110 93 198 63z m726 -29 c52 -49 39 -118 -29 -156 -21 -12 -33 -24 -28 -28
6 -4 34 -47 63 -98 29 -50 60 -93 71 -95 33 -9 19 -23 -25 -23 -43 0 -43 0
-75 65 -58 119 -79 145 -113 145 l-30 0 3 -92 3 -93 33 -3 c17 -2 32 -7 32
-13 0 -5 -45 -9 -101 -9 -64 0 -98 4 -94 10 3 6 19 10 34 10 26 0 29 4 35 46
8 60 8 238 0 297 -6 42 -9 46 -43 54 -30 6 -19 9 64 13 123 6 169 -1 200 -30z
m800 28 c4 -3 5 -26 3 -49 -4 -43 -4 -43 -15 -18 -19 43 -51 59 -115 59 -50 0
-62 -4 -93 -31 -97 -85 -79 -312 29 -363 72 -34 156 -11 182 50 19 45 32 36
25 -18 -6 -40 -8 -43 -51 -56 -58 -17 -145 -10 -198 17 -161 82 -143 338 28
410 25 11 195 10 205 -1z m-2155 -38 c0 -29 -4 -40 -15 -40 -8 0 -15 8 -15 18
0 33 -21 42 -102 42 l-78 0 0 -85 c0 -82 1 -85 25 -91 14 -3 45 -3 70 0 39 6
45 10 45 32 0 13 5 24 10 24 6 0 10 -28 10 -65 0 -37 -4 -65 -10 -65 -5 0 -10
11 -10 24 0 21 -6 26 -43 31 -83 13 -91 8 -99 -60 -4 -33 -5 -75 -2 -92 l5
-33 87 0 c48 0 92 4 98 8 6 4 19 22 28 40 23 44 29 36 20 -27 l-7 -51 -173 0
c-101 0 -174 4 -174 9 0 5 12 11 28 13 l27 3 3 193 c2 178 1 192 -15 192 -10
0 -25 5 -33 10 -10 6 41 10 153 10 l167 0 0 -40z m249 -134 c13 -16 -1 -56
-19 -56 -33 0 -55 42 -33 63 11 12 40 8 52 -7z m661 -1 c26 -31 -18 -71 -47
-42 -19 19 -8 57 16 57 10 0 24 -7 31 -15z m734 -7 c8 -14 7 -21 -6 -34 -30
-30 -75 9 -48 42 16 18 39 15 54 -8z m-1764 -419 c0 -17 -4 -28 -10 -24 -5 3
-10 13 -10 21 0 12 -12 14 -57 12 l-58 -3 0 -55 c0 -50 2 -55 24 -58 36 -5 69
6 74 26 3 9 5 -5 4 -33 0 -27 -2 -40 -4 -27 -4 19 -10 22 -54 22 l-50 0 3 -62
3 -63 47 -3 c54 -3 85 10 98 41 7 19 9 16 9 -15 l1 -38 -122 1 c-68 1 -114 4
-103 6 31 8 35 21 35 130 0 115 -4 133 -31 133 -10 0 -19 5 -19 10 0 6 43 10
110 10 l110 0 0 -31z m304 25 c15 -6 24 -54 10 -54 -3 0 -15 12 -27 26 -18 23
-25 26 -66 21 -56 -6 -87 -38 -96 -101 -9 -57 1 -99 31 -136 43 -50 122 -48
146 4 14 33 28 24 19 -11 -13 -50 -119 -57 -182 -13 -81 59 -76 190 10 247 34
23 117 32 155 17z m308 -11 c68 -41 96 -151 52 -210 -52 -69 -124 -89 -196
-54 -105 50 -111 196 -12 262 37 24 115 25 156 2z m224 -35 c21 -29 62 -81 91
-116 l53 -65 0 107 c0 88 -3 106 -15 106 -8 0 -15 5 -15 10 0 6 18 10 40 10
22 0 40 -4 40 -10 0 -5 -7 -10 -15 -10 -13 0 -15 -22 -15 -140 0 -77 -3 -140
-7 -139 -5 0 -50 54 -102 120 -51 65 -98 119 -103 119 -6 0 -8 -13 -4 -31 3
-17 6 -67 6 -110 0 -65 3 -78 18 -82 9 -3 -3 -5 -28 -6 -35 0 -41 2 -27 10 15
9 17 26 17 134 0 104 -2 125 -15 125 -8 0 -15 5 -15 10 0 6 13 10 29 10 24 0
37 -10 67 -52z m490 21 c76 -71 71 -191 -10 -244 -72 -47 -182 -18 -216 57
-25 54 -25 82 0 135 27 61 70 85 142 80 44 -2 64 -9 84 -28z m233 -69 c58
-147 54 -145 88 -54 17 44 36 96 42 117 11 33 16 37 47 37 19 0 34 -4 34 -10
0 -5 -7 -10 -15 -10 -12 0 -15 -16 -15 -84 0 -117 9 -174 29 -179 9 -3 -11 -5
-44 -4 -33 0 -50 2 -37 4 21 4 22 8 22 121 0 78 -3 112 -10 102 -5 -8 -26 -63
-47 -122 -20 -60 -40 -108 -44 -108 -3 0 -28 52 -55 116 -55 132 -61 130 -63
-23 -1 -77 0 -82 22 -86 12 -2 -3 -5 -33 -5 -39 -1 -49 2 -34 8 18 7 22 20 27
86 11 128 9 174 -8 174 -8 0 -15 5 -15 11 0 6 15 9 36 7 35 -3 36 -4 73 -98z
m411 90 c0 -5 -9 -10 -20 -10 -19 0 -20 -7 -20 -129 0 -126 1 -130 23 -134 12
-2 -7 -4 -43 -4 -36 0 -55 2 -42 4 21 4 22 8 22 134 0 122 -1 129 -20 129 -11
0 -20 5 -20 10 0 6 27 10 60 10 33 0 60 -4 60 -10z m284 4 c17 -7 22 -54 6
-54 -5 0 -10 7 -10 15 0 33 -70 46 -119 20 -66 -34 -76 -174 -17 -234 19 -19
36 -26 65 -26 41 0 81 26 81 52 0 7 5 13 10 13 6 0 10 -8 10 -18 0 -57 -84
-79 -164 -44 -37 17 -51 30 -66 64 -25 54 -25 82 0 135 25 56 70 83 137 83 28
0 58 -3 67 -6z m-1800 -360 c17 -7 22 -54 6 -54 -5 0 -10 4 -10 9 0 18 -31 41
-55 41 -28 0 -59 -39 -49 -63 3 -9 35 -34 70 -56 61 -39 64 -42 64 -81 0 -65
-50 -100 -125 -86 -33 6 -35 9 -34 44 l1 37 14 -32 c23 -53 87 -54 114 -2 15
26 -8 62 -53 85 -72 37 -96 78 -72 124 8 15 20 30 27 33 19 8 84 8 102 1z
m382 -10 c102 -48 104 -212 4 -265 -67 -37 -142 -20 -195 43 -24 29 -27 38
-23 95 3 53 9 68 33 94 17 17 39 35 50 39 33 14 95 11 131 -6z m425 6 c19 -11
26 -44 10 -54 -5 -3 -11 3 -14 14 -13 51 -112 49 -150 -2 -29 -39 -34 -124
-11 -173 34 -71 127 -84 165 -22 l19 32 0 -33 c0 -37 -25 -52 -88 -52 -153 0
-210 201 -80 280 36 22 116 27 149 10z m279 -2 c0 -4 -9 -8 -20 -8 -19 0 -20
-7 -20 -129 0 -126 1 -130 23 -134 12 -2 -9 -4 -48 -5 -43 0 -60 3 -45 7 25 7
25 7 25 131 0 122 -1 125 -23 128 -12 2 -20 6 -18 10 6 10 126 9 126 0z m311
-128 c32 -94 52 -136 65 -141 12 -5 -5 -8 -41 -8 -46 0 -55 2 -37 9 27 11 27
8 2 65 -19 45 -22 47 -51 41 -18 -3 -37 -6 -44 -6 -6 0 -17 -17 -23 -39 -16
-51 -15 -59 6 -64 9 -3 -5 -5 -33 -5 -27 0 -42 2 -33 5 16 4 35 48 98 221 13
34 28 61 34 59 5 -2 31 -64 57 -137z m309 128 c0 -5 -9 -8 -20 -8 -20 0 -20
-5 -18 -127 3 -126 3 -128 27 -131 47 -7 90 8 106 36 13 25 14 25 15 5 1 -51
-4 -53 -124 -52 -61 1 -101 4 -90 6 26 5 34 37 34 133 0 95 -8 130 -31 130
-11 0 -19 4 -19 8 0 5 27 8 60 8 33 0 60 -4 60 -8z m-2226 -44 c21 -21 20 -37
-4 -59 -19 -17 -19 -18 13 -56 18 -21 34 -39 37 -39 8 0 40 56 40 68 0 6 -8
13 -17 15 -10 3 5 5 32 5 28 0 42 -2 33 -6 -10 -4 -31 -29 -48 -56 l-31 -48
23 -25 c17 -19 30 -23 51 -19 17 4 26 2 22 -4 -10 -16 -81 -12 -95 5 -16 20
-27 19 -57 -5 -35 -27 -78 -26 -108 5 -36 35 -32 71 10 111 19 18 31 36 25 39
-5 3 -10 19 -10 35 0 45 52 66 84 34z m39 -332 c10 -9 17 -29 17 -49 0 -27 -6
-37 -28 -50 l-29 -16 40 -69 c22 -37 46 -68 54 -68 8 0 12 -4 9 -8 -3 -5 -18
-7 -33 -5 -24 4 -35 17 -63 71 -25 49 -41 68 -57 70 -22 3 -23 0 -23 -62 0
-59 2 -66 20 -66 11 0 20 -3 20 -7 0 -5 -27 -8 -60 -8 -33 0 -60 3 -60 8 0 4
9 7 19 7 27 0 31 18 31 130 0 113 -4 129 -34 132 -11 1 8 4 44 7 79 7 109 3
133 -17z m621 22 c17 -7 22 -54 6 -54 -5 0 -10 7 -10 15 0 24 -45 40 -75 27
-40 -19 -33 -57 16 -90 106 -69 123 -110 69 -164 -28 -28 -35 -30 -81 -26 -27
3 -52 8 -55 11 -3 3 -4 20 -2 39 l4 33 13 -33 c22 -55 103 -54 117 3 8 31 -11
54 -72 90 -48 28 -64 51 -64 89 0 47 77 82 134 60z m356 -30 c0 -29 -16 -32
-25 -4 -5 17 -15 20 -61 20 l-54 0 0 -60 0 -60 40 0 c33 0 42 4 50 23 7 17 9
11 8 -28 0 -27 -3 -40 -5 -27 -4 19 -11 22 -49 22 -49 0 -58 -14 -52 -86 3
-38 4 -39 47 -42 62 -5 86 3 100 34 16 35 24 25 14 -16 l-9 -32 -112 -2 c-105
-1 -138 5 -92 17 19 5 20 14 20 127 0 118 -1 122 -22 128 -13 4 24 9 82 12 58
3 108 4 113 2 4 -2 7 -14 7 -28z m271 -91 c24 -70 52 -136 62 -145 9 -10 17
-19 17 -20 0 -2 -22 -3 -50 -3 -27 0 -50 3 -50 8 0 4 7 7 15 7 18 0 19 11 3
61 -11 38 -12 39 -59 39 l-47 0 -16 -46 c-15 -44 -15 -46 4 -51 34 -9 22 -18
-25 -18 -49 0 -53 2 -30 19 12 9 62 128 110 264 11 30 25 4 66 -115z m337 90
c24 -33 11 -78 -30 -99 -14 -8 -12 -17 23 -76 22 -38 44 -68 49 -68 6 0 10 -4
10 -8 0 -5 -12 -7 -27 -4 -23 3 -35 17 -66 73 -27 49 -43 69 -57 69 -18 0 -20
-7 -20 -65 0 -58 2 -65 20 -65 11 0 20 -3 20 -7 0 -5 -27 -8 -60 -8 -33 0 -60
3 -60 8 0 4 9 7 20 7 19 0 20 7 20 130 0 128 0 130 -22 132 -13 1 6 4 42 7 75
7 120 -2 138 -26z m340 31 c17 -5 22 -13 21 -38 0 -29 -1 -30 -11 -9 -25 52
-109 53 -153 1 -21 -25 -25 -39 -25 -98 0 -59 4 -73 26 -99 45 -54 133 -50
155 6 13 32 24 15 15 -21 -6 -26 -31 -36 -91 -36 -87 0 -149 63 -149 152 0
102 102 171 212 142z m-1558 -31 l0 -28 -18 23 c-15 20 -26 23 -68 20 l-49 -3
-3 -57 -3 -58 46 0 c38 0 47 4 55 23 7 17 9 12 9 -28 0 -40 -2 -45 -9 -27 -8
18 -17 22 -55 22 l-45 0 0 -65 0 -65 59 0 c53 0 62 3 81 27 l22 28 -4 -34 -3
-33 -118 -2 c-64 0 -117 2 -117 7 0 4 8 7 19 7 25 0 31 26 31 130 0 105 -6
128 -34 133 -11 2 30 5 92 6 l112 1 0 -27z m1765 20 c-28 -7 -35 -21 -35 -75
l0 -48 85 0 85 0 0 48 c0 54 -7 68 -35 75 -11 2 9 5 45 5 48 1 59 -2 43 -8
-22 -9 -23 -14 -23 -135 0 -118 1 -125 20 -125 11 0 20 -3 20 -7 0 -5 -25 -8
-55 -8 -30 0 -55 3 -55 8 0 4 6 7 14 7 18 0 26 22 26 75 0 39 -2 43 -28 48
-16 3 -54 3 -85 0 l-57 -6 0 -43 c0 -52 8 -74 26 -74 8 0 14 -3 14 -7 0 -5
-25 -8 -55 -8 -56 0 -72 8 -35 18 19 5 20 14 20 126 0 117 -1 122 -22 131 -17
6 -6 9 42 8 36 0 56 -3 45 -5z m-2101 -353 c15 -5 26 -17 26 -28 0 -29 -12
-34 -24 -10 -29 58 -133 40 -162 -27 -57 -138 65 -282 157 -184 l29 31 0 -26
c0 -36 -31 -49 -102 -44 -52 4 -63 9 -96 41 -35 35 -37 41 -37 101 0 50 5 71
21 93 40 54 124 78 188 53z m386 -8 c105 -52 108 -217 6 -266 -46 -22 -114
-20 -153 4 -160 97 -21 347 147 262z m1209 12 c27 -6 31 -11 30 -38 0 -29 -1
-30 -11 -9 -24 50 -105 53 -149 7 -21 -23 -24 -35 -24 -106 0 -77 1 -80 33
-109 22 -19 43 -29 65 -29 37 0 77 24 77 46 0 8 5 14 10 14 6 0 10 -11 10 -25
0 -65 -171 -59 -215 8 -27 42 -36 87 -24 131 23 88 98 130 198 110z m-916 -11
c-22 -4 -23 -8 -23 -117 0 -101 2 -115 20 -131 28 -26 86 -23 114 4 18 19 21
35 24 126 4 102 3 105 -20 114 -19 8 -14 10 27 9 28 0 43 -2 34 -5 -14 -3 -17
-23 -21 -111 -6 -143 -26 -172 -119 -172 -31 0 -47 7 -70 29 -29 29 -29 31
-29 139 0 97 -2 111 -17 115 -10 3 9 5 42 4 33 0 50 -2 38 -4z m447 -103 c47
-60 88 -109 93 -110 9 0 9 66 1 148 -5 44 -11 62 -23 65 -9 3 4 5 29 6 32 0
41 -2 30 -9 -12 -7 -16 -38 -18 -145 -2 -74 -7 -135 -10 -134 -4 0 -50 55
-102 122 l-95 122 -3 -105 c-2 -85 0 -107 13 -116 24 -18 18 -24 -25 -24 -22
0 -40 5 -40 10 0 6 7 10 15 10 13 0 15 21 15 129 0 115 -2 130 -17 134 -10 3
-2 5 17 6 33 1 40 -5 120 -109z m753 103 c-22 -4 -23 -8 -23 -134 0 -122 1
-129 20 -129 11 0 20 -4 20 -10 0 -6 -27 -10 -60 -10 -33 0 -60 4 -60 10 0 6
9 10 20 10 19 0 20 7 20 129 l0 130 -27 4 c-16 2 4 4 42 4 39 0 60 -2 48 -4z
m270 0 c-30 -6 -36 -44 -28 -164 l7 -99 49 0 c47 0 53 3 85 45 14 19 15 18 8
-15 -3 -19 -8 -38 -11 -42 -7 -12 -213 -10 -213 2 0 6 9 10 20 10 19 0 20 7
20 125 0 121 -1 126 -22 135 -17 6 -6 9 42 8 36 0 55 -3 43 -5z"/>
<path d="M1788 2204 c-5 -4 -8 -47 -8 -96 0 -77 2 -88 18 -88 37 0 92 22 107
43 23 33 19 90 -8 115 -23 22 -96 39 -109 26z"/>
<path d="M934 1606 c-31 -31 -34 -39 -34 -95 0 -77 20 -118 67 -137 44 -19 83
-11 114 22 21 23 24 35 24 106 0 77 -1 80 -33 109 -46 42 -93 40 -138 -5z"/>
<path d="M1649 1625 c-34 -19 -54 -68 -53 -132 0 -91 61 -146 136 -124 52 16
78 59 78 129 0 113 -76 173 -161 127z"/>
<path d="M1168 1251 c-29 -26 -33 -35 -36 -97 -2 -56 1 -75 17 -102 39 -61
118 -67 165 -11 23 26 26 40 26 101 0 66 -2 72 -34 104 -45 45 -92 47 -138 5z"/>
<path d="M2251 1240 c-1 -3 -10 -29 -21 -57 l-20 -53 41 0 c39 0 41 1 35 26
-8 29 -34 92 -35 84z"/>
<path d="M343 1214 c-7 -19 20 -49 36 -40 6 4 11 18 11 32 0 17 -5 24 -20 24
-11 0 -23 -7 -27 -16z"/>
<path d="M321 1114 c-26 -33 -27 -58 -1 -84 26 -26 53 -25 85 3 l26 22 -36 43
c-20 23 -40 42 -45 42 -5 0 -18 -12 -29 -26z"/>
<path d="M330 850 c0 -66 10 -73 64 -49 57 26 35 109 -29 109 l-35 0 0 -60z"/>
<path d="M1606 823 c-9 -25 -14 -48 -12 -50 2 -3 20 -3 39 -1 l34 3 -14 48
c-7 26 -18 47 -22 47 -5 0 -16 -21 -25 -47z"/>
<path d="M1910 850 c0 -56 2 -60 23 -60 39 0 67 27 67 65 0 38 -20 55 -64 55
-25 0 -26 -2 -26 -60z"/>
<path d="M751 547 c-44 -22 -64 -61 -65 -124 -1 -123 95 -186 176 -114 27 24
32 36 36 87 6 80 -15 130 -62 149 -43 18 -54 18 -85 2z"/>
</g>
</svg>
