<?xml version="1.0" standalone="no"?>
<!DOCTYPE svg PUBLIC "-//W3C//DTD SVG 20010904//EN"
 "http://www.w3.org/TR/2001/REC-SVG-20010904/DTD/svg10.dtd">
<svg version="1.0" xmlns="http://www.w3.org/2000/svg"
 width="168.000000pt" height="168.000000pt" viewBox="0 0 168.000000 168.000000"
 preserveAspectRatio="xMidYMid meet">

<g transform="translate(0.000000,168.000000) scale(0.100000,-0.100000)"
fill="#000000" stroke="none">
<path d="M681 1484 c-136 -29 -291 -126 -381 -237 -258 -319 -184 -794 158
-1018 260 -171 590 -150 833 52 239 200 307 556 162 849 -52 105 -188 241
-293 293 -147 73 -323 95 -479 61z m-248 -339 c18 -17 12 -51 -10 -60 -43 -16
-82 36 -47 62 23 17 39 16 57 -2z m315 3 c9 -9 12 -82 12 -267 0 -272 4 -295
49 -317 17 -9 32 -9 55 -2 17 6 45 11 61 12 25 1 30 -3 33 -26 6 -48 -85 -88
-156 -69 -42 12 -95 61 -111 104 -7 17 -11 130 -11 291 0 269 2 286 40 286 9
0 21 -5 28 -12z m491 -178 c46 -13 99 -65 111 -110 5 -19 10 -106 10 -192 0
-129 -3 -159 -16 -172 -18 -19 -20 -19 -43 -7 -12 7 -31 5 -60 -5 -141 -48
-262 121 -181 254 34 56 75 74 153 69 65 -4 67 -4 61 17 -18 61 -64 87 -118
66 -40 -15 -64 -12 -76 9 -26 50 75 95 159 71z m-805 -22 c13 -18 16 -54 16
-185 0 -153 1 -164 21 -184 18 -18 30 -21 71 -17 96 10 109 -56 17 -82 -68
-20 -147 22 -180 94 -26 57 -28 355 -3 380 21 22 40 20 58 -6z"/>
<path d="M1140 708 c-28 -30 -28 -100 1 -129 15 -15 30 -19 62 -17 37 3 44 7
60 40 16 32 17 43 7 73 -6 19 -20 40 -30 45 -32 17 -78 12 -100 -12z"/>
</g>
</svg>
