<svg version="1.1" id="Layer_1" xmlns="http://www.w3.org/2000/svg" xmlns:xlink="http://www.w3.org/1999/xlink" x="0px" y="0px"
	 width="100%" viewBox="0 0 490 408" enable-background="new 0 0 490 408" xml:space="preserve">
<path fill="#000000" opacity="1.000000" stroke="none" 
	d="
M23.000000,409.000000 
	C15.681759,409.000000 8.363517,409.000000 1.000000,409.000000 
	C1.000000,345.645782 1.000000,282.291534 1.465694,218.408386 
	C51.032761,217.917969 100.134125,217.970734 149.235504,217.986160 
	C163.548065,217.990662 177.860672,217.888641 192.628052,217.891556 
	C201.411057,217.965408 209.739288,218.006104 218.067474,217.996902 
	C255.043442,217.956039 292.019409,217.900894 329.459045,217.916412 
	C347.496796,217.981918 365.070801,217.981918 382.694275,217.981918 
	C382.694275,153.698792 382.694275,90.050743 382.694275,25.952213 
	C365.283905,25.952213 348.176422,25.952213 331.143829,25.628168 
	C337.648041,18.873417 344.144958,12.507731 350.448700,5.956179 
	C351.682922,4.673408 352.168915,2.670670 353.000000,1.000000 
	C398.966095,1.000000 444.932220,1.000000 490.949158,1.000000 
	C490.949158,137.000000 490.949158,273.000000 490.949158,409.000000 
	C475.247589,409.000000 459.592468,409.000000 443.411133,408.534027 
	C442.922882,396.629730 442.893219,385.190552 443.043091,373.753693 
	C443.084137,370.621857 442.592438,368.848877 438.777740,368.898254 
	C435.012360,368.946960 434.966705,370.986542 434.978729,373.697510 
	C435.030853,385.464813 435.000427,397.232483 435.000000,409.000000 
	C433.611115,409.000000 432.222198,409.000000 430.359100,408.534027 
	C429.923035,400.455688 429.993927,392.843262 429.988617,385.230927 
	C429.984680,379.568298 429.461426,379.241119 423.000000,380.964569 
	C423.000000,390.207611 423.000000,399.603821 423.000000,409.000000 
	C418.975464,409.000000 414.950897,409.000000 410.441284,408.645508 
	C412.796295,405.438171 415.636353,402.585358 418.476410,399.732513 
	C418.044220,398.987274 417.612061,398.242004 417.179901,397.496765 
	C414.028076,398.245819 410.578857,398.429047 407.800751,399.889130 
	C404.432434,401.659485 402.259735,400.999115 399.985474,398.461090 
	C397.419769,395.597748 397.533997,392.080322 400.018494,390.089691 
	C401.866974,388.608612 405.419647,388.663971 408.105164,388.973511 
	C411.178375,389.327698 414.131989,390.719971 418.047882,391.946289 
	C417.242279,385.713593 414.626129,382.772034 410.638153,381.079651 
	C403.715607,378.141846 395.351837,380.899719 392.014648,387.024658 
	C388.212677,394.002625 390.475037,402.159821 397.419800,406.828247 
	C398.117737,407.297455 398.481262,408.264191 399.000000,409.000000 
	C395.307098,409.000000 391.614166,409.000000 387.403076,408.534241 
	C386.920288,402.754303 387.127747,397.434418 386.951050,392.127350 
	C386.681976,384.045441 382.085388,379.354309 374.495972,380.160370 
	C370.371124,380.598480 366.427979,381.845581 362.348053,380.099792 
	C361.887604,379.902771 361.139252,380.378571 360.000000,380.682129 
	C360.000000,390.143036 360.000000,399.571533 360.000000,409.000000 
	C358.285645,409.000000 356.571289,409.000000 354.370911,408.534027 
	C353.919922,399.910400 353.875916,391.751221 354.031647,383.595856 
	C354.088135,380.634338 352.724060,379.915314 350.084351,379.962219 
	C347.625854,380.005920 345.833679,380.292450 345.978241,383.426178 
	C346.131531,386.748993 345.910583,390.087921 346.023560,393.414032 
	C346.157349,397.352875 345.072571,400.708130 340.669708,400.844940 
	C335.865906,400.994141 336.091858,396.968506 336.023682,393.651001 
	C335.932892,389.231049 336.001312,384.807800 336.001312,380.535370 
	C328.014862,379.492676 328.012604,379.492676 328.001007,386.355530 
	C327.995392,389.685669 328.181213,393.028076 327.955902,396.342926 
	C327.647614,400.878876 328.936859,404.492767 332.865814,407.045593 
	C333.429291,407.411743 333.630920,408.334717 334.000000,409.000000 
	C327.978851,409.000000 321.957703,409.000000 315.453400,408.644226 
	C320.940857,404.812195 324.707489,400.133331 324.016235,392.708008 
	C323.357391,385.630920 319.229279,381.049591 312.247955,380.063812 
	C305.382324,379.094421 298.384521,382.778625 296.326935,388.445892 
	C293.708069,395.659180 295.765472,402.495056 301.570282,406.307373 
	C302.547943,406.949463 303.198364,408.089844 304.000000,409.000000 
	C297.645599,409.000000 291.291199,409.000000 284.444000,408.648224 
	C287.249054,404.742218 292.956512,402.955109 292.611603,396.669159 
	C286.799805,395.439453 286.627289,395.542999 282.228302,398.671539 
	C281.210236,399.395630 279.817108,399.802551 278.552612,399.934631 
	C272.159058,400.602386 267.744080,395.953644 268.126404,388.444427 
	C268.340271,384.244843 269.678741,379.819824 274.059143,378.329163 
	C276.481720,377.504730 280.701294,377.640289 282.160980,379.185272 
	C285.436371,382.652130 288.724762,382.129272 293.057678,381.497070 
	C292.705078,380.062225 292.632294,378.761658 292.085175,377.707184 
	C289.124969,372.001709 283.978577,369.536743 277.920654,369.067932 
	C270.027069,368.457123 263.773010,373.284851 260.975372,381.634979 
	C257.970764,390.602966 260.984375,401.366577 267.665680,405.884277 
	C268.910339,406.725830 269.895233,407.951569 271.000000,409.000000 
	C262.312439,409.000000 253.624863,409.000000 244.411041,408.534546 
	C243.919556,403.408264 244.311890,398.716858 243.916962,394.092712 
	C243.005524,383.421051 240.101379,379.192749 230.360809,380.092316 
	C228.326706,380.280151 226.371140,381.318420 223.997787,382.088593 
	C223.997787,379.078888 223.943466,376.264740 224.013916,373.453735 
	C224.077469,370.918182 223.978302,368.924408 220.454437,368.934814 
	C216.847672,368.945496 216.986053,371.097351 216.990982,373.545929 
	C217.014709,385.363892 217.000656,397.181976 217.000000,409.000000 
	C213.307098,409.000000 209.614182,409.000000 205.438660,408.645569 
	C207.841248,405.484314 210.726456,402.677460 213.611649,399.870605 
	C213.214890,399.144836 212.818130,398.419067 212.421371,397.693298 
	C209.362930,398.222870 205.755249,397.915649 203.374695,399.478058 
	C199.800049,401.824249 197.465897,400.736359 195.044678,398.430664 
	C192.157822,395.681519 192.942108,392.582062 195.187302,390.009766 
	C197.580475,387.267975 200.474854,387.594391 203.721725,389.109070 
	C206.382690,390.350403 209.477539,390.661652 212.742554,391.475555 
	C212.273834,381.276764 201.455338,378.465515 195.118088,380.535919 
	C188.942215,382.553558 185.541519,387.216003 185.409241,393.551666 
	C185.309174,398.344666 186.509033,403.041199 191.255508,405.886871 
	C192.386108,406.564667 193.096405,407.943542 194.000000,409.000000 
	C187.978851,409.000000 181.957703,409.000000 175.410675,408.534729 
	C174.924728,403.573242 174.992493,399.077026 174.996567,394.580780 
	C175.000427,390.322174 177.035156,388.115814 181.338699,387.975372 
	C182.437424,387.939545 183.526581,387.610504 184.562256,387.426483 
	C184.562256,384.869446 184.562256,382.641724 184.562256,380.844238 
	C178.621521,380.844238 173.117188,380.844238 167.000000,380.844238 
	C167.000000,390.101593 167.000000,399.550781 167.000000,409.000000 
	C166.250000,409.000000 165.500000,409.000000 164.309784,408.576416 
	C163.846924,406.499817 164.515121,404.021851 163.688156,403.329376 
	C158.761871,399.204224 160.301285,393.726135 159.956207,388.593994 
	C159.576889,382.952759 155.336090,379.905518 148.272507,380.001434 
	C141.045975,380.099548 138.154770,382.480408 137.858948,388.245789 
	C142.391968,392.317169 147.608154,383.521179 152.671021,389.449585 
	C149.419662,390.084747 146.393280,390.007782 144.129379,391.283691 
	C141.157715,392.958588 137.806976,395.224152 136.409531,398.104309 
	C134.720169,401.586121 136.733826,405.133118 140.291290,407.310944 
	C140.713852,407.569611 140.772614,408.422546 141.000000,409.000000 
	C136.310745,409.000000 131.621490,409.000000 126.439560,408.651550 
	C128.431824,405.713409 130.916779,403.123718 133.401718,400.534027 
	C133.070862,399.940826 132.740005,399.347626 132.409149,398.754456 
	C129.655045,399.254456 126.773911,399.400482 124.175095,400.333160 
	C119.699692,401.939392 116.920609,401.185944 115.058411,396.758545 
	C121.347610,396.758545 127.429970,396.758545 133.888214,396.758545 
	C134.088547,390.875763 132.805252,385.895508 128.641129,382.495331 
	C122.883438,377.793976 112.866005,379.571381 108.769859,385.487457 
	C103.844971,392.600433 105.552872,401.730438 112.570686,406.306854 
	C113.549591,406.945221 114.198395,408.089783 115.000000,409.000000 
	C109.977905,409.000000 104.955818,409.000000 99.430313,408.642090 
	C101.798050,404.605591 106.728943,400.798004 102.645508,395.967590 
	C99.734756,392.524353 94.715263,390.863739 90.636810,388.407623 
	C90.653946,388.078186 90.671082,387.748718 90.688217,387.419281 
	C94.875267,388.017395 99.062309,388.615540 103.377945,389.232025 
	C103.500099,381.275421 97.197403,379.055847 89.983932,380.125732 
	C86.140648,380.695770 82.658089,382.301849 82.017899,387.010010 
	C81.352364,391.904572 83.969307,394.399597 88.129143,395.917511 
	C90.662483,396.841949 93.185707,397.794128 95.713478,398.733856 
	C95.574890,399.450073 95.436295,400.166260 95.297699,400.882477 
	C93.606339,400.762177 91.827782,400.932709 90.242775,400.457581 
	C87.424873,399.612854 84.724213,398.377045 81.974510,397.304810 
	C81.484451,397.980408 80.994385,398.656006 80.504326,399.331604 
	C82.669556,402.554413 84.834785,405.777191 87.000008,409.000000 
	C81.977905,409.000000 76.955818,409.000000 71.440430,408.651611 
	C73.385788,405.641388 75.824432,402.979553 78.263077,400.317719 
	C77.901627,399.738434 77.540169,399.159119 77.178719,398.579834 
	C74.408241,399.204559 71.633980,399.813019 68.868233,400.457977 
	C65.278061,401.295197 61.767784,401.958923 59.687813,397.000000 
	C63.147423,397.000000 66.134056,397.000000 69.120689,397.000000 
	C72.235939,397.000000 75.351189,397.000000 79.002144,397.000000 
	C78.473236,390.757233 78.072075,385.277527 72.776154,381.976013 
	C66.313560,377.947266 56.714264,379.876434 53.188393,385.663940 
	C48.808834,392.852753 50.939732,401.952240 57.988884,406.554230 
	C58.832108,407.104706 59.337837,408.172180 60.000000,409.000000 
	C57.299988,409.000000 54.599972,409.000000 51.315804,408.664062 
	C49.012650,404.968109 47.641197,401.361694 45.481071,398.314392 
	C43.119469,394.982819 42.787243,392.809631 45.822636,389.388733 
	C52.206470,382.194092 48.556175,372.033081 39.113815,369.954163 
	C35.614315,369.183716 31.908653,369.398346 28.319683,368.972595 
	C24.273804,368.492584 22.812136,369.927795 22.909231,374.170380 
	C23.174812,385.774841 23.000259,397.389435 23.000000,409.000000 
M195.667572,296.966614 
	C197.268707,296.869965 198.869843,296.773346 200.621643,296.667603 
	C200.775192,295.092743 200.958496,293.961487 200.982544,292.826843 
	C201.056625,289.332123 200.452927,285.673462 201.317017,282.396088 
	C201.923752,280.094849 204.497986,278.312408 206.193634,276.298309 
	C207.455078,278.390198 209.377182,280.352295 209.819809,282.605072 
	C210.450119,285.813019 210.130524,289.241241 209.962601,292.562500 
	C209.808502,295.610291 210.601288,297.079956 214.072830,297.094879 
	C217.722214,297.110535 218.144745,295.289429 218.027603,292.416565 
	C217.898819,289.258087 218.017609,286.090179 217.996338,282.926605 
	C217.911774,270.349548 209.943085,265.651123 201.385773,270.329803 
	C191.881470,269.862946 184.784653,269.514343 177.004822,269.132202 
	C177.004822,277.427765 177.103409,285.215698 176.955414,292.998962 
	C176.897675,296.035645 177.986328,297.066833 181.009338,297.070770 
	C184.055069,297.074738 185.166595,295.998840 185.040634,292.979279 
	C184.874283,288.991058 184.585953,284.913696 185.246338,281.026947 
	C185.553314,279.220123 187.972961,277.772247 189.434906,276.161652 
	C190.620972,277.868591 192.552856,279.461823 192.834167,281.306702 
	C193.380096,284.887146 192.825027,288.621216 193.082245,292.266541 
	C193.192993,293.836090 194.190628,295.343048 195.667572,296.966614 
M22.000219,264.664520 
	C22.000526,273.824402 22.140894,282.987518 21.931490,292.142609 
	C21.848921,295.752502 22.810820,297.266388 26.669966,297.071869 
	C32.318089,296.787201 37.991341,297.019409 43.653713,296.993835 
	C49.426361,296.967773 49.703640,296.556946 48.073566,289.999939 
	C44.597855,289.999939 40.972649,290.004883 37.347462,289.998871 
	C30.392063,289.987366 30.011112,289.474548 31.942438,281.999939 
	C34.748997,281.999939 37.708492,282.004456 40.667973,281.999054 
	C47.608444,281.986328 48.007393,281.446777 46.172104,274.478119 
	C45.742947,274.352325 45.278732,274.108582 44.808552,274.096497 
	C42.312149,274.032227 39.814293,274.011444 37.316849,274.002777 
	C30.391026,273.978760 29.973961,273.418579 31.999887,265.872131 
	C37.040054,265.872131 42.271393,265.872131 47.580582,265.872131 
	C47.580582,263.308990 47.580582,261.422668 47.580582,259.582977 
	C46.732628,259.341858 46.264771,259.095825 45.795082,259.092285 
	C39.300781,259.043152 32.798885,259.204407 26.314556,258.935425 
	C22.569887,258.780090 21.625025,260.481537 22.000219,264.664520 
M110.000000,337.495789 
	C109.999237,330.830597 109.905518,324.163544 110.040070,317.501099 
	C110.100128,314.526978 109.535515,312.908295 105.986076,312.903931 
	C102.401840,312.899506 101.802513,314.583038 101.972504,317.526733 
	C102.115005,319.994415 102.001770,322.476837 102.001770,325.228271 
	C100.611435,325.053589 99.631683,325.029877 98.703812,324.798309 
	C90.851517,322.838531 84.678795,327.057770 82.553284,335.875000 
	C80.893707,342.759430 85.679611,351.881653 92.136971,352.712769 
	C97.795700,353.441071 103.622330,352.864838 110.000000,352.864838 
	C110.000000,347.734985 110.000000,343.114319 110.000000,337.495789 
M147.227005,324.831635 
	C149.327896,324.831635 151.428802,324.831635 154.638870,324.831635 
	C153.693069,322.249084 153.376862,320.308014 152.371384,318.838623 
	C149.126328,314.096222 141.770828,312.356476 135.791824,314.672607 
	C132.205124,316.062042 129.354660,318.065521 129.009766,322.371735 
	C128.645386,326.921387 129.074829,331.053680 133.854843,333.286469 
	C137.298019,334.894836 140.880127,336.269684 144.121796,338.213135 
	C145.368668,338.960663 145.844345,340.994568 146.671432,342.442352 
	C145.180222,343.288788 143.715424,344.745941 142.190460,344.811890 
	C140.628510,344.879425 138.403152,344.020477 137.526276,342.804199 
	C134.926605,339.198334 131.836517,339.652161 128.427444,340.600067 
	C127.837204,348.619202 133.587311,353.297363 143.361588,352.996552 
	C148.847870,352.827698 154.111160,349.314850 154.928406,345.276550 
	C156.324432,338.378204 154.149338,333.891327 147.981491,331.004181 
	C145.291962,329.745209 142.432800,328.762848 139.953918,327.179993 
	C138.895218,326.504028 138.611786,324.613983 137.976074,323.275604 
	C139.712692,322.734619 141.482666,321.705536 143.174393,321.821198 
	C144.336533,321.900665 145.389984,323.569641 147.227005,324.831635 
M257.712097,352.934204 
	C262.797180,352.790680 261.003540,349.631653 260.257263,347.017273 
	C259.576691,344.633118 258.553772,342.330841 258.051331,339.915619 
	C257.415894,336.861084 257.471100,333.642548 256.656921,330.650299 
	C255.463058,326.262634 249.042084,323.155457 244.025909,324.147217 
	C237.718140,325.394318 235.062576,328.268921 235.239609,334.714050 
	C238.200195,333.819489 240.998123,333.207550 243.600586,332.125458 
	C246.513321,330.914368 248.373444,331.402557 249.759247,334.052277 
	C245.573059,335.094940 241.430099,335.224457 238.444077,337.149017 
	C235.945404,338.759430 233.239761,342.616058 233.485413,345.206879 
	C233.739410,347.885590 237.046005,350.913147 239.767731,352.504974 
	C241.724213,353.649200 245.317307,353.516937 247.460815,352.474579 
	C250.962708,350.771606 253.811310,351.593292 257.712097,352.934204 
M25.662256,333.976685 
	C27.651320,333.377411 29.731798,332.980377 31.608303,332.132111 
	C34.519424,330.816162 36.357937,331.451630 38.154041,334.731506 
	C35.847904,334.854462 34.365780,334.836517 32.914139,335.038116 
	C31.455379,335.240662 29.989111,335.546997 28.592070,336.007782 
	C23.533228,337.676361 20.661440,341.365601 21.232571,345.317719 
	C21.905952,349.977386 25.797377,352.921967 31.257479,353.008759 
	C36.534920,353.092621 41.778316,349.249847 47.112446,352.861694 
	C47.347786,353.021057 47.989120,352.580872 48.672604,352.337677 
	C48.761909,351.233215 49.380085,349.608704 48.860950,349.059845 
	C44.552811,344.504913 46.753510,338.741180 45.707798,333.610046 
	C43.541611,322.980927 33.035820,322.329468 26.270161,326.616302 
	C24.101751,327.990234 20.596510,330.603302 25.662256,333.976685 
M91.607399,297.071136 
	C99.439743,299.310120 107.297508,295.335632 109.456512,288.042969 
	C111.947639,279.628510 108.380821,272.332245 100.522202,269.766907 
	C93.338440,267.421844 84.706291,270.870300 82.476891,277.168762 
	C79.400299,285.860657 83.271439,295.500214 91.607399,297.071136 
M171.209183,290.424316 
	C171.680817,289.191254 172.262558,287.987915 172.605103,286.719971 
	C174.113708,281.135559 171.668610,274.811523 166.763611,271.427216 
	C161.919144,268.084656 154.686035,268.197571 149.912308,271.690308 
	C145.145340,275.178101 143.070206,281.516876 144.561401,287.161285 
	C146.199249,293.360840 150.258270,296.772247 156.402344,297.607330 
	C162.460800,298.430817 167.455444,296.378906 171.209183,290.424316 
M164.994492,326.024963 
	C157.495438,330.801666 156.636627,336.954865 158.754272,344.097595 
	C161.016083,351.726562 169.960953,355.345215 177.392853,352.208557 
	C186.435974,348.391998 187.807785,342.523163 185.019714,332.525604 
	C183.050949,325.465912 175.815735,323.378571 164.994492,326.024963 
M138.864624,273.972290 
	C134.461349,268.267639 129.734573,267.557281 122.605911,270.760620 
	C119.260620,269.961548 116.993172,269.419891 114.000084,268.704926 
	C114.000084,276.771851 113.993935,283.727753 114.001823,290.683655 
	C114.009674,297.605713 114.556458,298.005920 122.013466,296.043884 
	C122.013466,291.749084 121.344048,287.149689 122.268402,282.896667 
	C122.809540,280.406860 125.619194,277.058563 127.896744,276.617340 
	C131.239197,275.969727 132.008713,279.554932 131.999741,282.592651 
	C131.988922,286.251434 132.130417,289.915466 131.976334,293.567505 
	C131.844559,296.690826 133.609634,297.171326 136.072922,296.993713 
	C138.248108,296.836853 141.253937,297.745117 140.943985,293.927460 
	C140.424423,287.528198 139.688675,281.146484 138.864624,273.972290 
M66.737915,325.002228 
	C64.376167,325.564575 62.014427,326.126953 60.924503,326.386475 
	C57.521965,325.763367 55.120651,325.323608 52.002815,324.752625 
	C52.002815,333.382507 52.102417,340.995728 51.954163,348.604095 
	C51.894226,351.679810 52.675430,353.073425 56.100151,353.093842 
	C59.768085,353.115723 60.170170,351.245148 60.020817,348.402649 
	C59.907597,346.247833 59.999016,344.082214 60.000282,341.921417 
	C60.000771,341.090363 59.977425,340.258240 60.010040,339.428406 
	C60.197098,334.669495 62.402382,332.032990 66.297867,332.056610 
	C71.069626,332.085541 70.626968,336.069458 70.879425,338.902496 
	C71.284386,343.446777 70.987968,348.053619 70.987968,352.479584 
	C78.985191,353.489563 78.989891,353.489563 78.998032,346.647308 
	C79.002388,342.990631 79.162628,339.323456 78.944458,335.679474 
	C78.489380,328.078857 75.228783,325.106293 66.737915,325.002228 
M205.421631,344.799347 
	C201.624939,346.776917 199.569489,344.581268 197.880463,341.613800 
	C196.070892,338.434570 197.083313,335.928345 199.774155,333.790588 
	C202.380188,331.720276 204.581299,332.173706 207.418121,333.846710 
	C209.997223,335.367767 213.303192,335.656372 216.958817,336.675018 
	C214.972397,326.943390 210.066849,323.943481 200.253448,325.030640 
	C193.409027,325.788849 188.740250,331.873077 189.006897,339.686798 
	C189.261246,347.139160 194.790024,352.676270 202.293152,352.993134 
	C210.236450,353.328552 215.352020,349.429840 216.360184,340.990387 
	C212.556564,342.231293 209.297012,343.294708 205.421631,344.799347 
M239.111160,294.486298 
	C249.368088,300.809387 260.370728,297.307953 261.325439,286.513519 
	C258.138031,287.145142 254.777649,287.056366 252.300278,288.491669 
	C249.154968,290.313965 246.963364,290.503326 244.401947,287.919861 
	C241.491104,284.983978 241.719650,281.982025 244.118393,279.074646 
	C246.393173,276.317535 249.113953,276.807831 252.197601,278.091858 
	C255.074890,279.289917 258.291534,279.672974 261.964905,280.561340 
	C260.444580,273.544769 255.801102,269.339020 250.326523,269.039185 
	C244.261093,268.707001 238.966873,270.592926 236.055115,276.166565 
	C232.753326,282.486816 233.660629,288.613739 239.111160,294.486298 
M51.129166,280.123962 
	C51.094749,281.953400 50.897221,283.797058 51.055412,285.609711 
	C51.608784,291.950562 58.038662,297.744934 64.641838,297.980774 
	C71.295303,298.218414 77.114395,293.667847 78.283424,286.113953 
	C74.612183,287.205505 71.529564,288.553680 68.331810,288.934204 
	C65.840446,289.230621 62.483269,289.180237 60.796608,287.758545 
	C57.946762,285.356445 58.148636,281.340942 60.966675,278.962128 
	C62.553970,277.622253 66.514801,276.914886 67.905205,277.946289 
	C71.491531,280.606628 74.824448,280.108429 78.614937,279.511932 
	C76.252449,272.119019 72.387444,269.075256 65.635902,269.008484 
	C59.224308,268.945068 53.732166,272.912842 51.129166,280.123962 
M270.902863,314.952606 
	C268.766266,314.374359 266.644348,313.561768 264.480072,313.426483 
	C264.074249,313.401123 263.085297,316.078827 263.068390,317.517365 
	C262.945831,327.961121 263.064087,338.407593 262.964111,348.851807 
	C262.937012,351.682739 263.636841,353.051788 266.830841,353.082916 
	C270.164978,353.115479 271.090424,351.844086 271.049164,348.690674 
	C270.906006,337.749908 270.981873,326.806305 270.902863,314.952606 
M221.000000,335.532410 
	C221.001648,340.029236 221.137543,344.531433 220.958435,349.021057 
	C220.836075,352.088257 222.038254,353.056885 225.033676,353.070770 
	C228.111053,353.085022 229.111969,351.940338 229.042328,348.953705 
	C228.890961,342.461823 228.897293,335.961700 229.041824,329.469482 
	C229.108780,326.461853 228.469147,324.913452 224.957993,324.904663 
	C221.344086,324.895630 220.779327,326.645935 220.981079,329.554504 
	C221.096054,331.211975 221.000656,332.884033 221.000000,335.532410 
M229.999985,290.367432 
	C229.992645,284.246552 230.146927,278.117065 229.823532,272.012939 
	C229.767731,270.959473 227.691208,269.243652 226.535873,269.233582 
	C225.373062,269.223389 223.218643,270.921173 223.179672,271.935211 
	C222.893951,279.368225 222.936615,286.820282 223.153458,294.258209 
	C223.180496,295.185059 224.718140,296.658539 225.756821,296.864319 
	C230.585739,297.821106 230.042480,294.309174 229.999985,290.367432 
M422.591187,370.034088 
	C422.388947,371.828003 421.430603,374.032257 422.136658,375.333252 
	C423.772217,378.347137 427.104553,379.147980 429.744110,377.178619 
	C431.075500,376.185272 431.953613,372.671936 431.219360,371.212250 
	C429.585144,367.963593 426.567627,366.500641 422.591187,370.034088 
M222.488098,259.032379 
	C219.858459,261.778473 220.862167,264.686005 223.328171,266.242188 
	C224.908249,267.239319 228.735809,267.201019 229.670212,266.069611 
	C230.897629,264.583374 231.201462,261.024658 230.220154,259.333252 
	C228.774231,256.841064 225.781128,255.857803 222.488098,259.032379 
M222.259583,313.468994 
	C219.399109,315.757202 218.831589,318.660431 221.692825,320.894531 
	C223.187210,322.061340 226.252838,322.369568 228.012192,321.635590 
	C229.175507,321.150238 230.019165,317.988922 229.703094,316.264435 
	C229.042480,312.660187 225.912292,312.805756 222.259583,313.468994 
z"/>
<path fill="#FE5A5A" opacity="1.000000" stroke="none" 
	d="
M328.995361,217.850922 
	C292.019409,217.900894 255.043442,217.956039 218.067474,217.996902 
	C209.739288,218.006104 201.411057,217.965408 192.624847,217.434189 
	C192.165024,155.427994 192.166138,93.935295 192.149139,32.442600 
	C192.148544,30.284538 191.967972,28.126524 191.925919,25.504086 
	C191.987030,17.026455 191.993515,9.013227 192.000000,1.000000 
	C245.354233,1.000000 298.708466,1.000000 352.531342,1.000000 
	C352.168915,2.670670 351.682922,4.673408 350.448700,5.956179 
	C344.144958,12.507731 337.648041,18.873417 330.801178,25.695541 
	C328.719635,27.425140 326.900818,28.611559 325.416382,30.125763 
	C314.580414,41.178799 303.839630,52.325054 293.015320,63.389587 
	C275.202515,81.597755 257.383606,99.800293 239.473892,117.912849 
	C236.985794,120.429123 236.560059,122.234055 239.279510,124.920204 
	C244.602020,130.177505 249.541183,135.820343 254.782608,141.162720 
	C278.453827,165.289841 302.184509,189.358658 325.852631,213.488800 
	C327.093201,214.753555 327.956451,216.388382 328.995361,217.850922 
z"/>
<path fill="#2F2E63" opacity="1.000000" stroke="none" 
	d="
M191.871292,25.968489 
	C191.967972,28.126524 192.148544,30.284538 192.149139,32.442600 
	C192.166138,93.935295 192.165024,155.427994 192.170059,217.378067 
	C177.860672,217.888641 163.548065,217.990662 149.235504,217.986160 
	C100.134125,217.970734 51.032761,217.917969 1.465694,217.939728 
	C1.000000,154.312439 1.000000,90.624878 1.465694,26.528944 
	C4.262850,26.082041 6.594302,26.010494 8.925776,26.009798 
	C69.907616,25.991550 130.889450,25.980652 191.871292,25.968489 
M36.479454,196.171143 
	C39.257355,196.171143 42.035255,196.171143 45.217453,196.171143 
	C45.217453,186.858093 45.217453,178.100586 45.217453,169.407196 
	C51.250088,167.890076 55.614445,168.685852 59.033653,174.290039 
	C62.919079,180.658371 67.927063,186.332031 72.234161,192.457382 
	C74.122284,195.142578 76.173752,196.278412 79.600723,196.259995 
	C108.587700,196.104294 137.575882,196.171097 166.563690,196.171097 
	C168.037262,196.171097 169.510834,196.171097 171.104294,196.171097 
	C171.104294,190.902786 171.104294,186.046143 171.104294,180.841858 
	C162.415070,180.841858 154.128204,180.841858 145.837860,180.841858 
	C145.837860,166.095901 145.837860,151.711243 145.837860,136.984344 
	C154.438293,136.984344 162.719788,136.984344 171.054810,136.984344 
	C172.214188,125.638031 172.795578,115.402931 162.271622,107.239235 
	C153.986313,100.812111 147.356522,92.250862 138.743790,83.347939 
	C148.978607,73.711655 159.013992,64.443878 168.777878,54.898369 
	C170.471771,53.242348 171.017426,50.411804 172.546326,47.160698 
	C167.422150,47.160698 163.890030,47.602898 160.510284,47.073124 
	C152.231674,45.775467 146.570007,48.974060 141.392822,55.397923 
	C134.992264,63.339741 127.524284,70.421280 119.481506,78.976517 
	C119.481506,67.494446 119.481506,57.464119 119.481506,47.481964 
	C104.742950,47.481964 90.661682,47.481964 76.159805,47.481964 
	C76.159805,61.425751 76.224838,75.052963 76.137566,88.679184 
	C76.076622,98.194160 70.264847,103.825310 60.777447,103.827934 
	C51.249832,103.830566 45.305531,98.209618 45.198681,88.816818 
	C45.081192,78.489159 45.171387,68.159142 45.171143,57.830147 
	C45.171062,54.394096 45.171131,50.958046 45.171131,47.432812 
	C37.436920,47.432812 30.359190,47.432812 22.829277,47.432812 
	C22.829277,61.323215 22.767767,74.946678 22.845697,88.569351 
	C22.932446,103.733032 29.719109,113.436852 43.983253,119.114876 
	C45.045174,119.537590 46.037216,120.135857 47.061749,120.652512 
	C46.973549,121.001396 46.885349,121.350273 46.797146,121.699158 
	C38.894127,121.699158 30.991106,121.699158 23.183868,121.699158 
	C23.183868,146.819672 23.183868,171.380600 23.183868,196.171143 
	C27.519814,196.171143 31.502449,196.171143 36.479454,196.171143 
z"/>
<path fill="#000000" opacity="1.000000" stroke="none" 
	d="
M191.925919,25.504086 
	C130.889450,25.980652 69.907616,25.991550 8.925776,26.009798 
	C6.594302,26.010494 4.262850,26.082041 1.465694,26.060287 
	C1.000000,17.683577 1.000000,9.367155 1.000000,1.000000 
	C64.354218,1.000000 127.708450,1.000000 191.531342,1.000000 
	C191.993515,9.013227 191.987030,17.026455 191.925919,25.504086 
z"/>
<path fill="#2E2D62" opacity="1.000000" stroke="none" 
	d="
M23.437500,409.000000 
	C23.000259,397.389435 23.174812,385.774841 22.909231,374.170380 
	C22.812136,369.927795 24.273804,368.492584 28.319683,368.972595 
	C31.908653,369.398346 35.614315,369.183716 39.113815,369.954163 
	C48.556175,372.033081 52.206470,382.194092 45.822636,389.388733 
	C42.787243,392.809631 43.119469,394.982819 45.481071,398.314392 
	C47.641197,401.361694 49.012650,404.968109 50.865826,408.664062 
	C48.299988,409.000000 45.599972,409.000000 42.489670,408.642029 
	C39.700829,404.172943 37.415592,400.002625 34.872631,395.995880 
	C34.297222,395.089233 32.782124,394.243561 31.782530,394.329926 
	C31.117018,394.387451 30.147186,396.125122 30.094513,397.150909 
	C29.892141,401.091827 30.004833,405.048920 30.000000,409.000000 
	C27.958334,409.000000 25.916666,409.000000 23.437500,409.000000 
M34.232635,377.014465 
	C29.530184,377.543518 28.985275,378.994781 30.736696,386.584534 
	C34.608517,387.574310 38.193241,386.877747 39.705879,382.936890 
	C41.116032,379.263000 38.414913,377.625977 34.232635,377.014465 
z"/>
<path fill="#2E2D62" opacity="1.000000" stroke="none" 
	d="
M271.463196,409.000000 
	C269.895233,407.951569 268.910339,406.725830 267.665680,405.884277 
	C260.984375,401.366577 257.970764,390.602966 260.975372,381.634979 
	C263.773010,373.284851 270.027069,368.457123 277.920654,369.067932 
	C283.978577,369.536743 289.124969,372.001709 292.085175,377.707184 
	C292.632294,378.761658 292.705078,380.062225 293.057678,381.497070 
	C288.724762,382.129272 285.436371,382.652130 282.160980,379.185272 
	C280.701294,377.640289 276.481720,377.504730 274.059143,378.329163 
	C269.678741,379.819824 268.340271,384.244843 268.126404,388.444427 
	C267.744080,395.953644 272.159058,400.602386 278.552612,399.934631 
	C279.817108,399.802551 281.210236,399.395630 282.228302,398.671539 
	C286.627289,395.542999 286.799805,395.439453 292.611603,396.669159 
	C292.956512,402.955109 287.249054,404.742218 283.975586,408.648224 
	C279.975464,409.000000 275.950897,409.000000 271.463196,409.000000 
z"/>
<path fill="#2E2D62" opacity="1.000000" stroke="none" 
	d="
M217.444168,409.000000 
	C217.000656,397.181976 217.014709,385.363892 216.990982,373.545929 
	C216.986053,371.097351 216.847672,368.945496 220.454437,368.934814 
	C223.978302,368.924408 224.077469,370.918182 224.013916,373.453735 
	C223.943466,376.264740 223.997787,379.078888 223.997787,382.088593 
	C226.371140,381.318420 228.326706,380.280151 230.360809,380.092316 
	C240.101379,379.192749 243.005524,383.421051 243.916962,394.092712 
	C244.311890,398.716858 243.919556,403.408264 243.942398,408.534546 
	C241.299988,409.000000 238.599976,409.000000 235.507553,408.534271 
	C235.075378,402.931946 235.263824,397.778015 234.875198,392.667969 
	C234.734360,390.816132 233.581024,388.052979 232.218811,387.560181 
	C230.855469,387.067047 228.306305,388.520111 226.928406,389.813904 
	C225.792770,390.880157 225.169403,392.938965 225.087494,394.595886 
	C224.850616,399.386963 225.001389,404.197266 225.000000,409.000000 
	C222.629440,409.000000 220.258896,409.000000 217.444168,409.000000 
z"/>
<path fill="#2E2D62" opacity="1.000000" stroke="none" 
	d="
M60.458069,409.000000 
	C59.337837,408.172180 58.832108,407.104706 57.988884,406.554230 
	C50.939732,401.952240 48.808834,392.852753 53.188393,385.663940 
	C56.714264,379.876434 66.313560,377.947266 72.776154,381.976013 
	C78.072075,385.277527 78.473236,390.757233 79.002144,397.000000 
	C75.351189,397.000000 72.235939,397.000000 69.120689,397.000000 
	C66.134056,397.000000 63.147423,397.000000 59.687813,397.000000 
	C61.767784,401.958923 65.278061,401.295197 68.868233,400.457977 
	C71.633980,399.813019 74.408241,399.204559 77.178719,398.579834 
	C77.540169,399.159119 77.901627,399.738434 78.263077,400.317719 
	C75.824432,402.979553 73.385788,405.641388 70.973572,408.651611 
	C67.638710,409.000000 64.277428,409.000000 60.458069,409.000000 
z"/>
<path fill="#2E2D62" opacity="1.000000" stroke="none" 
	d="
M115.458069,409.000000 
	C114.198395,408.089783 113.549591,406.945221 112.570686,406.306854 
	C105.552872,401.730438 103.844971,392.600433 108.769859,385.487457 
	C112.866005,379.571381 122.883438,377.793976 128.641129,382.495331 
	C132.805252,385.895508 134.088547,390.875763 133.888214,396.758545 
	C127.429970,396.758545 121.347610,396.758545 115.058411,396.758545 
	C116.920609,401.185944 119.699692,401.939392 124.175095,400.333160 
	C126.773911,399.400482 129.655045,399.254456 132.409149,398.754456 
	C132.740005,399.347626 133.070862,399.940826 133.401718,400.534027 
	C130.916779,403.123718 128.431824,405.713409 125.973442,408.651550 
	C122.638710,409.000000 119.277428,409.000000 115.458069,409.000000 
z"/>
<path fill="#2E2D62" opacity="1.000000" stroke="none" 
	d="
M141.458069,409.000000 
	C140.772614,408.422546 140.713852,407.569611 140.291290,407.310944 
	C136.733826,405.133118 134.720169,401.586121 136.409531,398.104309 
	C137.806976,395.224152 141.157715,392.958588 144.129379,391.283691 
	C146.393280,390.007782 149.419662,390.084747 152.671021,389.449585 
	C147.608154,383.521179 142.391968,392.317169 137.858948,388.245789 
	C138.154770,382.480408 141.045975,380.099548 148.272507,380.001434 
	C155.336090,379.905518 159.576889,382.952759 159.956207,388.593994 
	C160.301285,393.726135 158.761871,399.204224 163.688156,403.329376 
	C164.515121,404.021851 163.846924,406.499817 163.934784,408.576416 
	C161.958328,409.000000 159.916672,409.000000 157.480316,408.652954 
	C154.878021,404.782806 153.304993,405.909393 152.000000,409.000000 
	C148.638718,409.000000 145.277420,409.000000 141.458069,409.000000 
M151.460754,397.113922 
	C149.003937,397.643280 146.547104,398.172638 142.974976,398.942291 
	C148.443024,402.876373 149.618866,402.481476 151.460754,397.113922 
z"/>
<path fill="#2E2D62" opacity="1.000000" stroke="none" 
	d="
M304.458069,409.000000 
	C303.198364,408.089844 302.547943,406.949463 301.570282,406.307373 
	C295.765472,402.495056 293.708069,395.659180 296.326935,388.445892 
	C298.384521,382.778625 305.382324,379.094421 312.247955,380.063812 
	C319.229279,381.049591 323.357391,385.630920 324.016235,392.708008 
	C324.707489,400.133331 320.940857,404.812195 314.985107,408.644226 
	C311.638702,409.000000 308.277435,409.000000 304.458069,409.000000 
M304.006287,394.481689 
	C303.830994,397.949310 305.506653,400.669434 308.799957,400.711487 
	C310.862030,400.737762 313.767822,399.010315 314.859924,397.202728 
	C317.089020,393.513184 314.610657,388.109283 310.945282,387.161224 
	C307.881042,386.368622 305.051910,389.026062 304.006287,394.481689 
z"/>
<path fill="#2E2D62" opacity="1.000000" stroke="none" 
	d="
M360.444153,409.000000 
	C360.000000,399.571533 360.000000,390.143036 360.000000,380.682129 
	C361.139252,380.378571 361.887604,379.902771 362.348053,380.099792 
	C366.427979,381.845581 370.371124,380.598480 374.495972,380.160370 
	C382.085388,379.354309 386.681976,384.045441 386.951050,392.127350 
	C387.127747,397.434418 386.920288,402.754303 386.942444,408.534241 
	C384.629425,409.000000 382.258881,409.000000 379.501770,408.534912 
	C378.762848,402.316559 378.949738,396.461578 377.889801,390.841736 
	C377.019836,386.229218 373.225372,385.599701 370.392426,389.302002 
	C369.089417,391.004852 368.275177,393.421875 368.107635,395.582397 
	C367.762634,400.030975 368.001404,404.524780 368.000000,409.000000 
	C365.629425,409.000000 363.258881,409.000000 360.444153,409.000000 
z"/>
<path fill="#2E2D62" opacity="1.000000" stroke="none" 
	d="
M334.454102,409.000000 
	C333.630920,408.334717 333.429291,407.411743 332.865814,407.045593 
	C328.936859,404.492767 327.647614,400.878876 327.955902,396.342926 
	C328.181213,393.028076 327.995392,389.685669 328.001007,386.355530 
	C328.012604,379.492676 328.014862,379.492676 336.001312,380.535370 
	C336.001312,384.807800 335.932892,389.231049 336.023682,393.651001 
	C336.091858,396.968506 335.865906,400.994141 340.669708,400.844940 
	C345.072571,400.708130 346.157349,397.352875 346.023560,393.414032 
	C345.910583,390.087921 346.131531,386.748993 345.978241,383.426178 
	C345.833679,380.292450 347.625854,380.005920 350.084351,379.962219 
	C352.724060,379.915314 354.088135,380.634338 354.031647,383.595856 
	C353.875916,391.751221 353.919922,399.910400 353.942444,408.534027 
	C352.285645,409.000000 350.571289,409.000000 348.502045,408.655701 
	C347.584961,407.673553 347.022736,407.035706 346.460510,406.397888 
	C345.640320,407.265259 344.820160,408.132629 344.000000,409.000000 
	C340.969391,409.000000 337.938812,409.000000 334.454102,409.000000 
z"/>
<path fill="#2E2D62" opacity="1.000000" stroke="none" 
	d="
M399.458069,409.000000 
	C398.481262,408.264191 398.117737,407.297455 397.419800,406.828247 
	C390.475037,402.159821 388.212677,394.002625 392.014648,387.024658 
	C395.351837,380.899719 403.715607,378.141846 410.638153,381.079651 
	C414.626129,382.772034 417.242279,385.713593 418.047882,391.946289 
	C414.131989,390.719971 411.178375,389.327698 408.105164,388.973511 
	C405.419647,388.663971 401.866974,388.608612 400.018494,390.089691 
	C397.533997,392.080322 397.419769,395.597748 399.985474,398.461090 
	C402.259735,400.999115 404.432434,401.659485 407.800751,399.889130 
	C410.578857,398.429047 414.028076,398.245819 417.179901,397.496765 
	C417.612061,398.242004 418.044220,398.987274 418.476410,399.732513 
	C415.636353,402.585358 412.796295,405.438171 409.978119,408.645508 
	C406.638702,409.000000 403.277435,409.000000 399.458069,409.000000 
z"/>
<path fill="#2E2D62" opacity="1.000000" stroke="none" 
	d="
M194.458069,409.000000 
	C193.096405,407.943542 192.386108,406.564667 191.255508,405.886871 
	C186.509033,403.041199 185.309174,398.344666 185.409241,393.551666 
	C185.541519,387.216003 188.942215,382.553558 195.118088,380.535919 
	C201.455338,378.465515 212.273834,381.276764 212.742554,391.475555 
	C209.477539,390.661652 206.382690,390.350403 203.721725,389.109070 
	C200.474854,387.594391 197.580475,387.267975 195.187302,390.009766 
	C192.942108,392.582062 192.157822,395.681519 195.044678,398.430664 
	C197.465897,400.736359 199.800049,401.824249 203.374695,399.478058 
	C205.755249,397.915649 209.362930,398.222870 212.421371,397.693298 
	C212.818130,398.419067 213.214890,399.144836 213.611649,399.870605 
	C210.726456,402.677460 207.841248,405.484314 204.978027,408.645569 
	C201.638718,409.000000 198.277420,409.000000 194.458069,409.000000 
z"/>
<path fill="#2E2D62" opacity="1.000000" stroke="none" 
	d="
M87.460648,409.000000 
	C84.834785,405.777191 82.669556,402.554413 80.504326,399.331604 
	C80.994385,398.656006 81.484451,397.980408 81.974510,397.304810 
	C84.724213,398.377045 87.424873,399.612854 90.242775,400.457581 
	C91.827782,400.932709 93.606339,400.762177 95.297699,400.882477 
	C95.436295,400.166260 95.574890,399.450073 95.713478,398.733856 
	C93.185707,397.794128 90.662483,396.841949 88.129143,395.917511 
	C83.969307,394.399597 81.352364,391.904572 82.017899,387.010010 
	C82.658089,382.301849 86.140648,380.695770 89.983932,380.125732 
	C97.197403,379.055847 103.500099,381.275421 103.377945,389.232025 
	C99.062309,388.615540 94.875267,388.017395 90.688217,387.419281 
	C90.671082,387.748718 90.653946,388.078186 90.636810,388.407623 
	C94.715263,390.863739 99.734756,392.524353 102.645508,395.967590 
	C106.728943,400.798004 101.798050,404.605591 98.963448,408.642090 
	C95.307091,409.000000 91.614182,409.000000 87.460648,409.000000 
z"/>
<path fill="#2E2D62" opacity="1.000000" stroke="none" 
	d="
M435.444153,409.000000 
	C435.000427,397.232483 435.030853,385.464813 434.978729,373.697510 
	C434.966705,370.986542 435.012360,368.946960 438.777740,368.898254 
	C442.592438,368.848877 443.084137,370.621857 443.043091,373.753693 
	C442.893219,385.190552 442.922882,396.629730 442.942444,408.534027 
	C440.629425,409.000000 438.258881,409.000000 435.444153,409.000000 
z"/>
<path fill="#2E2D62" opacity="1.000000" stroke="none" 
	d="
M167.444168,409.000000 
	C167.000000,399.550781 167.000000,390.101593 167.000000,380.844238 
	C173.117188,380.844238 178.621521,380.844238 184.562256,380.844238 
	C184.562256,382.641724 184.562256,384.869446 184.562256,387.426483 
	C183.526581,387.610504 182.437424,387.939545 181.338699,387.975372 
	C177.035156,388.115814 175.000427,390.322174 174.996567,394.580780 
	C174.992493,399.077026 174.924728,403.573242 174.942383,408.534729 
	C172.629440,409.000000 170.258896,409.000000 167.444168,409.000000 
z"/>
<path fill="#000000" opacity="1.000000" stroke="none" 
	d="
M368.458069,409.000000 
	C368.001404,404.524780 367.762634,400.030975 368.107635,395.582397 
	C368.275177,393.421875 369.089417,391.004852 370.392426,389.302002 
	C373.225372,385.599701 377.019836,386.229218 377.889801,390.841736 
	C378.949738,396.461578 378.762848,402.316559 379.057617,408.534912 
	C375.638702,409.000000 372.277435,409.000000 368.458069,409.000000 
z"/>
<path fill="#000000" opacity="1.000000" stroke="none" 
	d="
M225.454102,409.000000 
	C225.001389,404.197266 224.850616,399.386963 225.087494,394.595886 
	C225.169403,392.938965 225.792770,390.880157 226.928406,389.813904 
	C228.306305,388.520111 230.855469,387.067047 232.218811,387.560181 
	C233.581024,388.052979 234.734360,390.816132 234.875198,392.667969 
	C235.263824,397.778015 235.075378,402.931946 235.057571,408.534271 
	C231.969406,409.000000 228.938812,409.000000 225.454102,409.000000 
z"/>
<path fill="#2E2D62" opacity="1.000000" stroke="none" 
	d="
M423.437500,409.000000 
	C423.000000,399.603821 423.000000,390.207611 423.000000,380.964569 
	C429.461426,379.241119 429.984680,379.568298 429.988617,385.230927 
	C429.993927,392.843262 429.923035,400.455688 429.942444,408.534027 
	C427.958344,409.000000 425.916656,409.000000 423.437500,409.000000 
z"/>
<path fill="#000000" opacity="1.000000" stroke="none" 
	d="
M30.460636,409.000000 
	C30.004833,405.048920 29.892141,401.091827 30.094513,397.150909 
	C30.147186,396.125122 31.117018,394.387451 31.782530,394.329926 
	C32.782124,394.243561 34.297222,395.089233 34.872631,395.995880 
	C37.415592,400.002625 39.700829,404.172943 42.039688,408.642029 
	C38.307091,409.000000 34.614182,409.000000 30.460636,409.000000 
z"/>
<path fill="#000000" opacity="1.000000" stroke="none" 
	d="
M152.416656,409.000000 
	C153.304993,405.909393 154.878021,404.782806 157.042816,408.652954 
	C155.611115,409.000000 154.222214,409.000000 152.416656,409.000000 
z"/>
<path fill="#000000" opacity="1.000000" stroke="none" 
	d="
M344.399994,409.000000 
	C344.820160,408.132629 345.640320,407.265259 346.460510,406.397888 
	C347.022736,407.035706 347.584961,407.673553 348.073578,408.655701 
	C346.933319,409.000000 345.866669,409.000000 344.399994,409.000000 
z"/>
<path fill="#CB3564" opacity="1.000000" stroke="none" 
	d="
M329.459045,217.916412 
	C327.956451,216.388382 327.093201,214.753555 325.852631,213.488800 
	C302.184509,189.358658 278.453827,165.289841 254.782608,141.162720 
	C249.541183,135.820343 244.602020,130.177505 239.279510,124.920204 
	C236.560059,122.234055 236.985794,120.429123 239.473892,117.912849 
	C257.383606,99.800293 275.202515,81.597755 293.015320,63.389587 
	C303.839630,52.325054 314.580414,41.178799 325.416382,30.125763 
	C326.900818,28.611559 328.719635,27.425140 330.726288,26.019585 
	C348.176422,25.952213 365.283905,25.952213 382.694275,25.952213 
	C382.694275,90.050743 382.694275,153.698792 382.694275,217.981918 
	C365.070801,217.981918 347.496796,217.981918 329.459045,217.916412 
z"/>
<path fill="#2E2D62" opacity="1.000000" stroke="none" 
	d="
M195.226456,296.922546 
	C194.190628,295.343048 193.192993,293.836090 193.082245,292.266541 
	C192.825027,288.621216 193.380096,284.887146 192.834167,281.306702 
	C192.552856,279.461823 190.620972,277.868591 189.434906,276.161652 
	C187.972961,277.772247 185.553314,279.220123 185.246338,281.026947 
	C184.585953,284.913696 184.874283,288.991058 185.040634,292.979279 
	C185.166595,295.998840 184.055069,297.074738 181.009338,297.070770 
	C177.986328,297.066833 176.897675,296.035645 176.955414,292.998962 
	C177.103409,285.215698 177.004822,277.427765 177.004822,269.132202 
	C184.784653,269.514343 191.881470,269.862946 201.385773,270.329803 
	C209.943085,265.651123 217.911774,270.349548 217.996338,282.926605 
	C218.017609,286.090179 217.898819,289.258087 218.027603,292.416565 
	C218.144745,295.289429 217.722214,297.110535 214.072830,297.094879 
	C210.601288,297.079956 209.808502,295.610291 209.962601,292.562500 
	C210.130524,289.241241 210.450119,285.813019 209.819809,282.605072 
	C209.377182,280.352295 207.455078,278.390198 206.193634,276.298309 
	C204.497986,278.312408 201.923752,280.094849 201.317017,282.396088 
	C200.452927,285.673462 201.056625,289.332123 200.982544,292.826843 
	C200.958496,293.961487 200.775192,295.092743 200.621643,296.667603 
	C198.869843,296.773346 197.268707,296.869965 195.226456,296.922546 
z"/>
<path fill="#2E2D62" opacity="1.000000" stroke="none" 
	d="
M22.000740,264.187683 
	C21.625025,260.481537 22.569887,258.780090 26.314556,258.935425 
	C32.798885,259.204407 39.300781,259.043152 45.795082,259.092285 
	C46.264771,259.095825 46.732628,259.341858 47.580582,259.582977 
	C47.580582,261.422668 47.580582,263.308990 47.580582,265.872131 
	C42.271393,265.872131 37.040054,265.872131 31.999887,265.872131 
	C29.973961,273.418579 30.391026,273.978760 37.316849,274.002777 
	C39.814293,274.011444 42.312149,274.032227 44.808552,274.096497 
	C45.278732,274.108582 45.742947,274.352325 46.172104,274.478119 
	C48.007393,281.446777 47.608444,281.986328 40.667973,281.999054 
	C37.708492,282.004456 34.748997,281.999939 31.942438,281.999939 
	C30.011112,289.474548 30.392063,289.987366 37.347462,289.998871 
	C40.972649,290.004883 44.597855,289.999939 48.073566,289.999939 
	C49.703640,296.556946 49.426361,296.967773 43.653713,296.993835 
	C37.991341,297.019409 32.318089,296.787201 26.669966,297.071869 
	C22.810820,297.266388 21.848921,295.752502 21.931490,292.142609 
	C22.140894,282.987518 22.000526,273.824402 22.000740,264.187683 
z"/>
<path fill="#2E2D62" opacity="1.000000" stroke="none" 
	d="
M110.000000,337.994720 
	C110.000000,343.114319 110.000000,347.734985 110.000000,352.864838 
	C103.622330,352.864838 97.795700,353.441071 92.136971,352.712769 
	C85.679611,351.881653 80.893707,342.759430 82.553284,335.875000 
	C84.678795,327.057770 90.851517,322.838531 98.703812,324.798309 
	C99.631683,325.029877 100.611435,325.053589 102.001770,325.228271 
	C102.001770,322.476837 102.115005,319.994415 101.972504,317.526733 
	C101.802513,314.583038 102.401840,312.899506 105.986076,312.903931 
	C109.535515,312.908295 110.100128,314.526978 110.040070,317.501099 
	C109.905518,324.163544 109.999237,330.830597 110.000000,337.994720 
M98.751114,344.535095 
	C99.248894,344.100769 99.775856,343.695374 100.239700,343.227386 
	C103.138000,340.303436 102.586784,336.917786 100.339035,334.334412 
	C99.238617,333.069672 96.192337,332.577820 94.368530,333.051605 
	C90.399734,334.082733 90.580612,337.702972 91.204010,340.823120 
	C91.920456,344.408905 94.656578,345.338531 98.751114,344.535095 
z"/>
<path fill="#2E2D62" opacity="1.000000" stroke="none" 
	d="
M146.859528,324.679871 
	C145.389984,323.569641 144.336533,321.900665 143.174393,321.821198 
	C141.482666,321.705536 139.712692,322.734619 137.976074,323.275604 
	C138.611786,324.613983 138.895218,326.504028 139.953918,327.179993 
	C142.432800,328.762848 145.291962,329.745209 147.981491,331.004181 
	C154.149338,333.891327 156.324432,338.378204 154.928406,345.276550 
	C154.111160,349.314850 148.847870,352.827698 143.361588,352.996552 
	C133.587311,353.297363 127.837204,348.619202 128.427444,340.600067 
	C131.836517,339.652161 134.926605,339.198334 137.526276,342.804199 
	C138.403152,344.020477 140.628510,344.879425 142.190460,344.811890 
	C143.715424,344.745941 145.180222,343.288788 146.671417,342.442322 
	C145.844345,340.994568 145.368668,338.960663 144.121796,338.213135 
	C140.880127,336.269684 137.298019,334.894836 133.854843,333.286469 
	C129.074829,331.053680 128.645386,326.921387 129.009766,322.371735 
	C129.354660,318.065521 132.205124,316.062042 135.791824,314.672607 
	C141.770828,312.356476 149.126328,314.096222 152.371384,318.838623 
	C153.376862,320.308014 153.693069,322.249084 154.638870,324.831635 
	C151.428802,324.831635 149.327896,324.831635 146.859528,324.679871 
z"/>
<path fill="#2E2D62" opacity="1.000000" stroke="none" 
	d="
M257.310486,352.882629 
	C253.811310,351.593292 250.962708,350.771606 247.460815,352.474579 
	C245.317307,353.516937 241.724213,353.649200 239.767731,352.504974 
	C237.046005,350.913147 233.739410,347.885590 233.485413,345.206879 
	C233.239761,342.616058 235.945404,338.759430 238.444077,337.149017 
	C241.430099,335.224457 245.573059,335.094940 249.759247,334.052277 
	C248.373444,331.402557 246.513321,330.914368 243.600586,332.125458 
	C240.998123,333.207550 238.200195,333.819489 235.239609,334.714050 
	C235.062576,328.268921 237.718140,325.394318 244.025909,324.147217 
	C249.042084,323.155457 255.463058,326.262634 256.656921,330.650299 
	C257.471100,333.642548 257.415894,336.861084 258.051331,339.915619 
	C258.553772,342.330841 259.576691,344.633118 260.257263,347.017273 
	C261.003540,349.631653 262.797180,352.790680 257.310486,352.882629 
M244.616455,345.973267 
	C246.421005,344.809418 248.225555,343.645569 250.030090,342.481720 
	C249.769424,342.007172 249.508759,341.532623 249.248093,341.058075 
	C247.222260,341.546478 244.984665,341.651123 243.225128,342.622101 
	C241.107437,343.790741 240.688751,345.427765 244.616455,345.973267 
z"/>
<path fill="#2E2D62" opacity="1.000000" stroke="none" 
	d="
M25.261946,333.947388 
	C20.596510,330.603302 24.101751,327.990234 26.270161,326.616302 
	C33.035820,322.329468 43.541611,322.980927 45.707798,333.610046 
	C46.753510,338.741180 44.552811,344.504913 48.860950,349.059845 
	C49.380085,349.608704 48.761909,351.233215 48.672604,352.337677 
	C47.989120,352.580872 47.347786,353.021057 47.112446,352.861694 
	C41.778316,349.249847 36.534920,353.092621 31.257479,353.008759 
	C25.797377,352.921967 21.905952,349.977386 21.232571,345.317719 
	C20.661440,341.365601 23.533228,337.676361 28.592070,336.007782 
	C29.989111,335.546997 31.455379,335.240662 32.914139,335.038116 
	C34.365780,334.836517 35.847904,334.854462 38.154041,334.731506 
	C36.357937,331.451630 34.519424,330.816162 31.608303,332.132111 
	C29.731798,332.980377 27.651320,333.377411 25.261946,333.947388 
M30.842079,342.773163 
	C30.543081,343.584503 30.244083,344.395874 29.945095,345.207214 
	C31.125875,345.528442 32.618462,346.458130 33.423286,346.045715 
	C35.159374,345.156036 36.542202,343.576996 38.069576,342.280029 
	C37.854759,341.909180 37.639942,341.538330 37.425125,341.167480 
	C35.417088,341.559998 33.409050,341.952545 30.842079,342.773163 
z"/>
<path fill="#2E2D62" opacity="1.000000" stroke="none" 
	d="
M91.207184,297.026062 
	C83.271439,295.500214 79.400299,285.860657 82.476891,277.168762 
	C84.706291,270.870300 93.338440,267.421844 100.522202,269.766907 
	C108.380821,272.332245 111.947639,279.628510 109.456512,288.042969 
	C107.297508,295.335632 99.439743,299.310120 91.207184,297.026062 
M92.717155,289.117676 
	C97.991692,290.683533 100.868874,289.369965 101.854103,284.946259 
	C102.676849,281.252106 100.089828,277.326599 96.468964,276.774963 
	C93.136711,276.267273 89.650948,279.151245 89.771057,282.971527 
	C89.830986,284.877533 91.304497,286.739044 92.717155,289.117676 
z"/>
<path fill="#2E2D62" opacity="1.000000" stroke="none" 
	d="
M171.064819,290.781464 
	C167.455444,296.378906 162.460800,298.430817 156.402344,297.607330 
	C150.258270,296.772247 146.199249,293.360840 144.561401,287.161285 
	C143.070206,281.516876 145.145340,275.178101 149.912308,271.690308 
	C154.686035,268.197571 161.919144,268.084656 166.763611,271.427216 
	C171.668610,274.811523 174.113708,281.135559 172.605103,286.719971 
	C172.262558,287.987915 171.680817,289.191254 171.064819,290.781464 
M152.506912,284.951080 
	C152.878540,285.691071 153.202347,286.460052 153.629974,287.166138 
	C155.656921,290.513153 158.958298,290.977753 161.793091,289.287689 
	C165.195862,287.259033 165.412277,283.590881 163.856567,280.070587 
	C162.409042,276.795135 159.281082,275.485718 156.590561,277.234894 
	C154.495270,278.597107 153.626419,281.845703 152.506912,284.951080 
z"/>
<path fill="#2E2D62" opacity="1.000000" stroke="none" 
	d="
M165.365906,325.864899 
	C175.815735,323.378571 183.050949,325.465912 185.019714,332.525604 
	C187.807785,342.523163 186.435974,348.391998 177.392853,352.208557 
	C169.960953,355.345215 161.016083,351.726562 158.754272,344.097595 
	C156.636627,336.954865 157.495438,330.801666 165.365906,325.864899 
M166.145737,340.915283 
	C166.822525,341.832184 167.483170,342.761536 168.179062,343.663696 
	C170.501480,346.674500 173.228287,346.511536 175.911591,344.355255 
	C178.605713,342.190430 178.723740,336.879089 176.312256,333.942383 
	C173.865433,330.962585 170.716812,331.391846 168.499237,333.554688 
	C166.984650,335.031860 166.816910,337.889954 166.145737,340.915283 
z"/>
<path fill="#2E2D62" opacity="1.000000" stroke="none" 
	d="
M138.954254,274.364838 
	C139.688675,281.146484 140.424423,287.528198 140.943985,293.927460 
	C141.253937,297.745117 138.248108,296.836853 136.072922,296.993713 
	C133.609634,297.171326 131.844559,296.690826 131.976334,293.567505 
	C132.130417,289.915466 131.988922,286.251434 131.999741,282.592651 
	C132.008713,279.554932 131.239197,275.969727 127.896744,276.617340 
	C125.619194,277.058563 122.809540,280.406860 122.268402,282.896667 
	C121.344048,287.149689 122.013466,291.749084 122.013466,296.043884 
	C114.556458,298.005920 114.009674,297.605713 114.001823,290.683655 
	C113.993935,283.727753 114.000084,276.771851 114.000084,268.704926 
	C116.993172,269.419891 119.260620,269.961548 122.605911,270.760620 
	C129.734573,267.557281 134.461349,268.267639 138.954254,274.364838 
z"/>
<path fill="#2E2D62" opacity="1.000000" stroke="none" 
	d="
M67.164444,325.001373 
	C75.228783,325.106293 78.489380,328.078857 78.944458,335.679474 
	C79.162628,339.323456 79.002388,342.990631 78.998032,346.647308 
	C78.989891,353.489563 78.985191,353.489563 70.987968,352.479584 
	C70.987968,348.053619 71.284386,343.446777 70.879425,338.902496 
	C70.626968,336.069458 71.069626,332.085541 66.297867,332.056610 
	C62.402382,332.032990 60.197098,334.669495 60.010040,339.428406 
	C59.977425,340.258240 60.000771,341.090363 60.000282,341.921417 
	C59.999016,344.082214 59.907597,346.247833 60.020817,348.402649 
	C60.170170,351.245148 59.768085,353.115723 56.100151,353.093842 
	C52.675430,353.073425 51.894226,351.679810 51.954163,348.604095 
	C52.102417,340.995728 52.002815,333.382507 52.002815,324.752625 
	C55.120651,325.323608 57.521965,325.763367 60.924503,326.386475 
	C62.014427,326.126953 64.376167,325.564575 67.164444,325.001373 
z"/>
<path fill="#2E2D62" opacity="1.000000" stroke="none" 
	d="
M205.729553,344.578735 
	C209.297012,343.294708 212.556564,342.231293 216.360184,340.990387 
	C215.352020,349.429840 210.236450,353.328552 202.293152,352.993134 
	C194.790024,352.676270 189.261246,347.139160 189.006897,339.686798 
	C188.740250,331.873077 193.409027,325.788849 200.253448,325.030640 
	C210.066849,323.943481 214.972397,326.943390 216.958817,336.675018 
	C213.303192,335.656372 209.997223,335.367767 207.418121,333.846710 
	C204.581299,332.173706 202.380188,331.720276 199.774155,333.790588 
	C197.083313,335.928345 196.070892,338.434570 197.880463,341.613800 
	C199.569489,344.581268 201.624939,346.776917 205.729553,344.578735 
z"/>
<path fill="#2E2D62" opacity="1.000000" stroke="none" 
	d="
M238.827560,294.237976 
	C233.660629,288.613739 232.753326,282.486816 236.055115,276.166565 
	C238.966873,270.592926 244.261093,268.707001 250.326523,269.039185 
	C255.801102,269.339020 260.444580,273.544769 261.964905,280.561340 
	C258.291534,279.672974 255.074890,279.289917 252.197601,278.091858 
	C249.113953,276.807831 246.393173,276.317535 244.118393,279.074646 
	C241.719650,281.982025 241.491104,284.983978 244.401947,287.919861 
	C246.963364,290.503326 249.154968,290.313965 252.300278,288.491669 
	C254.777649,287.056366 258.138031,287.145142 261.325439,286.513519 
	C260.370728,297.307953 249.368088,300.809387 238.827560,294.237976 
z"/>
<path fill="#2E2D62" opacity="1.000000" stroke="none" 
	d="
M51.238651,279.727325 
	C53.732166,272.912842 59.224308,268.945068 65.635902,269.008484 
	C72.387444,269.075256 76.252449,272.119019 78.614937,279.511932 
	C74.824448,280.108429 71.491531,280.606628 67.905205,277.946289 
	C66.514801,276.914886 62.553970,277.622253 60.966675,278.962128 
	C58.148636,281.340942 57.946762,285.356445 60.796608,287.758545 
	C62.483269,289.180237 65.840446,289.230621 68.331810,288.934204 
	C71.529564,288.553680 74.612183,287.205505 78.283424,286.113953 
	C77.114395,293.667847 71.295303,298.218414 64.641838,297.980774 
	C58.038662,297.744934 51.608784,291.950562 51.055412,285.609711 
	C50.897221,283.797058 51.094749,281.953400 51.238651,279.727325 
z"/>
<path fill="#2E2D62" opacity="1.000000" stroke="none" 
	d="
M270.938660,315.408203 
	C270.981873,326.806305 270.906006,337.749908 271.049164,348.690674 
	C271.090424,351.844086 270.164978,353.115479 266.830841,353.082916 
	C263.636841,353.051788 262.937012,351.682739 262.964111,348.851807 
	C263.064087,338.407593 262.945831,327.961121 263.068390,317.517365 
	C263.085297,316.078827 264.074249,313.401123 264.480072,313.426483 
	C266.644348,313.561768 268.766266,314.374359 270.938660,315.408203 
z"/>
<path fill="#2E2D62" opacity="1.000000" stroke="none" 
	d="
M221.000000,335.040955 
	C221.000656,332.884033 221.096054,331.211975 220.981079,329.554504 
	C220.779327,326.645935 221.344086,324.895630 224.957993,324.904663 
	C228.469147,324.913452 229.108780,326.461853 229.041824,329.469482 
	C228.897293,335.961700 228.890961,342.461823 229.042328,348.953705 
	C229.111969,351.940338 228.111053,353.085022 225.033676,353.070770 
	C222.038254,353.056885 220.836075,352.088257 220.958435,349.021057 
	C221.137543,344.531433 221.001648,340.029236 221.000000,335.040955 
z"/>
<path fill="#2E2D62" opacity="1.000000" stroke="none" 
	d="
M229.999893,290.844879 
	C230.042480,294.309174 230.585739,297.821106 225.756821,296.864319 
	C224.718140,296.658539 223.180496,295.185059 223.153458,294.258209 
	C222.936615,286.820282 222.893951,279.368225 223.179672,271.935211 
	C223.218643,270.921173 225.373062,269.223389 226.535873,269.233582 
	C227.691208,269.243652 229.767731,270.959473 229.823532,272.012939 
	C230.146927,278.117065 229.992645,284.246552 229.999893,290.844879 
z"/>
<path fill="#2E2D62" opacity="1.000000" stroke="none" 
	d="
M422.843262,369.745117 
	C426.567627,366.500641 429.585144,367.963593 431.219360,371.212250 
	C431.953613,372.671936 431.075500,376.185272 429.744110,377.178619 
	C427.104553,379.147980 423.772217,378.347137 422.136658,375.333252 
	C421.430603,374.032257 422.388947,371.828003 422.843262,369.745117 
z"/>
<path fill="#2E2D62" opacity="1.000000" stroke="none" 
	d="
M222.760971,258.759399 
	C225.781128,255.857803 228.774231,256.841064 230.220154,259.333252 
	C231.201462,261.024658 230.897629,264.583374 229.670212,266.069611 
	C228.735809,267.201019 224.908249,267.239319 223.328171,266.242188 
	C220.862167,264.686005 219.858459,261.778473 222.760971,258.759399 
z"/>
<path fill="#2E2D62" opacity="1.000000" stroke="none" 
	d="
M222.634125,313.320251 
	C225.912292,312.805756 229.042480,312.660187 229.703094,316.264435 
	C230.019165,317.988922 229.175507,321.150238 228.012192,321.635590 
	C226.252838,322.369568 223.187210,322.061340 221.692825,320.894531 
	C218.831589,318.660431 219.399109,315.757202 222.634125,313.320251 
z"/>
<path fill="#FCFCFD" opacity="1.000000" stroke="none" 
	d="
M35.982269,196.171143 
	C31.502449,196.171143 27.519814,196.171143 23.183868,196.171143 
	C23.183868,171.380600 23.183868,146.819672 23.183868,121.699158 
	C30.991106,121.699158 38.894127,121.699158 46.797146,121.699158 
	C46.885349,121.350273 46.973549,121.001396 47.061749,120.652512 
	C46.037216,120.135857 45.045174,119.537590 43.983253,119.114876 
	C29.719109,113.436852 22.932446,103.733032 22.845697,88.569351 
	C22.767767,74.946678 22.829277,61.323215 22.829277,47.432812 
	C30.359190,47.432812 37.436920,47.432812 45.171131,47.432812 
	C45.171131,50.958046 45.171062,54.394096 45.171143,57.830147 
	C45.171387,68.159142 45.081192,78.489159 45.198681,88.816818 
	C45.305531,98.209618 51.249832,103.830566 60.777447,103.827934 
	C70.264847,103.825310 76.076622,98.194160 76.137566,88.679184 
	C76.224838,75.052963 76.159805,61.425751 76.159805,47.481964 
	C90.661682,47.481964 104.742950,47.481964 119.481506,47.481964 
	C119.481506,57.464119 119.481506,67.494446 119.481506,78.976517 
	C127.524284,70.421280 134.992264,63.339741 141.392822,55.397923 
	C146.570007,48.974060 152.231674,45.775467 160.510284,47.073124 
	C163.890030,47.602898 167.422150,47.160698 172.546326,47.160698 
	C171.017426,50.411804 170.471771,53.242348 168.777878,54.898369 
	C159.013992,64.443878 148.978607,73.711655 138.743790,83.347939 
	C147.356522,92.250862 153.986313,100.812111 162.271622,107.239235 
	C172.795578,115.402931 172.214188,125.638031 171.054810,136.984344 
	C162.719788,136.984344 154.438293,136.984344 145.837860,136.984344 
	C145.837860,151.711243 145.837860,166.095901 145.837860,180.841858 
	C154.128204,180.841858 162.415070,180.841858 171.104294,180.841858 
	C171.104294,186.046143 171.104294,190.902786 171.104294,196.171097 
	C169.510834,196.171097 168.037262,196.171097 166.563690,196.171097 
	C137.575882,196.171097 108.587700,196.104294 79.600723,196.259995 
	C76.173752,196.278412 74.122284,195.142578 72.234161,192.457382 
	C67.927063,186.332031 62.919079,180.658371 59.033653,174.290039 
	C55.614445,168.685852 51.250088,167.890076 45.217453,169.407196 
	C45.217453,178.100586 45.217453,186.858093 45.217453,196.171143 
	C42.035255,196.171143 39.257355,196.171143 35.982269,196.171143 
M90.311554,182.178207 
	C92.275497,184.715820 94.239441,187.253433 97.091110,190.938065 
	C97.091110,186.714890 97.091110,184.002182 97.091110,180.852570 
	C105.937744,180.852570 114.340759,180.852570 122.681732,180.852570 
	C122.681732,166.009979 122.681732,151.622986 122.681732,137.325058 
	C114.659569,137.325058 106.955917,137.325058 99.214027,137.325058 
	C100.530724,144.489395 100.778183,151.239410 96.868553,157.421326 
	C92.977539,163.573837 86.519745,165.744492 79.342400,167.670197 
	C83.124260,172.649307 86.518143,177.117599 90.311554,182.178207 
M135.845566,107.652336 
	C130.687973,102.194725 125.530388,96.737114 119.906570,90.786148 
	C119.906570,101.692154 119.906570,111.668175 119.906570,121.469131 
	C129.525620,121.469131 138.691696,121.469131 148.642731,121.469131 
	C144.169037,116.626602 140.256607,112.391602 135.845566,107.652336 
M76.996178,145.426666 
	C77.011208,140.516373 73.978127,137.727768 69.681831,137.462906 
	C61.633282,136.966736 53.532356,137.320129 45.437931,137.320129 
	C45.437931,142.780792 45.437931,147.872787 45.437931,153.142609 
	C53.652863,153.142609 61.607235,153.360153 69.541130,153.051514 
	C73.552002,152.895477 76.304626,150.477188 76.996178,145.426666 
M97.003639,127.943375 
	C97.003639,119.431854 97.003639,110.920341 97.003639,102.408821 
	C91.177895,113.346123 81.622475,118.441345 69.148994,121.733475 
	C80.312843,122.439896 89.520645,124.258896 97.003540,132.209793 
	C97.003540,130.436432 97.003540,129.616470 97.003639,127.943375 
z"/>
<path fill="#000000" opacity="1.000000" stroke="none" 
	d="
M34.657009,377.030090 
	C38.414913,377.625977 41.116032,379.263000 39.705879,382.936890 
	C38.193241,386.877747 34.608517,387.574310 30.736696,386.584534 
	C28.985275,378.994781 29.530184,377.543518 34.657009,377.030090 
z"/>
<path fill="#000000" opacity="1.000000" stroke="none" 
	d="
M151.757050,397.266510 
	C149.618866,402.481476 148.443024,402.876373 142.974976,398.942291 
	C146.547104,398.172638 149.003937,397.643280 151.757050,397.266510 
z"/>
<path fill="#000000" opacity="1.000000" stroke="none" 
	d="
M304.010040,394.076874 
	C305.051910,389.026062 307.881042,386.368622 310.945282,387.161224 
	C314.610657,388.109283 317.089020,393.513184 314.859924,397.202728 
	C313.767822,399.010315 310.862030,400.737762 308.799957,400.711487 
	C305.506653,400.669434 303.830994,397.949310 304.010040,394.076874 
z"/>
<path fill="#000000" opacity="1.000000" stroke="none" 
	d="
M98.384827,344.681946 
	C94.656578,345.338531 91.920456,344.408905 91.204010,340.823120 
	C90.580612,337.702972 90.399734,334.082733 94.368530,333.051605 
	C96.192337,332.577820 99.238617,333.069672 100.339035,334.334412 
	C102.586784,336.917786 103.138000,340.303436 100.239700,343.227386 
	C99.775856,343.695374 99.248894,344.100769 98.384827,344.681946 
z"/>
<path fill="#000000" opacity="1.000000" stroke="none" 
	d="
M244.250015,345.966492 
	C240.688751,345.427765 241.107437,343.790741 243.225128,342.622101 
	C244.984665,341.651123 247.222260,341.546478 249.248093,341.058075 
	C249.508759,341.532623 249.769424,342.007172 250.030090,342.481720 
	C248.225555,343.645569 246.421005,344.809418 244.250015,345.966492 
z"/>
<path fill="#000000" opacity="1.000000" stroke="none" 
	d="
M31.121544,342.559113 
	C33.409050,341.952545 35.417088,341.559998 37.425125,341.167480 
	C37.639942,341.538330 37.854759,341.909180 38.069576,342.280029 
	C36.542202,343.576996 35.159374,345.156036 33.423286,346.045715 
	C32.618462,346.458130 31.125875,345.528442 29.945091,345.207214 
	C30.244083,344.395874 30.543081,343.584503 31.121544,342.559113 
z"/>
<path fill="#000000" opacity="1.000000" stroke="none" 
	d="
M92.427872,288.869202 
	C91.304497,286.739044 89.830986,284.877533 89.771057,282.971527 
	C89.650948,279.151245 93.136711,276.267273 96.468964,276.774963 
	C100.089828,277.326599 102.676849,281.252106 101.854103,284.946259 
	C100.868874,289.369965 97.991692,290.683533 92.427872,288.869202 
z"/>
<path fill="#000000" opacity="1.000000" stroke="none" 
	d="
M152.359711,284.603516 
	C153.626419,281.845703 154.495270,278.597107 156.590561,277.234894 
	C159.281082,275.485718 162.409042,276.795135 163.856567,280.070587 
	C165.412277,283.590881 165.195862,287.259033 161.793091,289.287689 
	C158.958298,290.977753 155.656921,290.513153 153.629974,287.166138 
	C153.202347,286.460052 152.878540,285.691071 152.359711,284.603516 
z"/>
<path fill="#000000" opacity="1.000000" stroke="none" 
	d="
M166.096375,340.522949 
	C166.816910,337.889954 166.984650,335.031860 168.499237,333.554688 
	C170.716812,331.391846 173.865433,330.962585 176.312256,333.942383 
	C178.723740,336.879089 178.605713,342.190430 175.911591,344.355255 
	C173.228287,346.511536 170.501480,346.674500 168.179062,343.663696 
	C167.483170,342.761536 166.822525,341.832184 166.096375,340.522949 
z"/>
<path fill="#2F2E63" opacity="1.000000" stroke="none" 
	d="
M90.111786,181.882050 
	C86.518143,177.117599 83.124260,172.649307 79.342400,167.670197 
	C86.519745,165.744492 92.977539,163.573837 96.868553,157.421326 
	C100.778183,151.239410 100.530724,144.489395 99.214027,137.325058 
	C106.955917,137.325058 114.659569,137.325058 122.681732,137.325058 
	C122.681732,151.622986 122.681732,166.009979 122.681732,180.852570 
	C114.340759,180.852570 105.937744,180.852570 97.091110,180.852570 
	C97.091110,184.002182 97.091110,186.714890 97.091110,190.938065 
	C94.239441,187.253433 92.275497,184.715820 90.111786,181.882050 
z"/>
<path fill="#39386B" opacity="1.000000" stroke="none" 
	d="
M136.094864,107.904465 
	C140.256607,112.391602 144.169037,116.626602 148.642731,121.469131 
	C138.691696,121.469131 129.525620,121.469131 119.906570,121.469131 
	C119.906570,111.668175 119.906570,101.692154 119.906570,90.786148 
	C125.530388,96.737114 130.687973,102.194725 136.094864,107.904465 
z"/>
<path fill="#313064" opacity="1.000000" stroke="none" 
	d="
M76.981018,145.826813 
	C76.304626,150.477188 73.552002,152.895477 69.541130,153.051514 
	C61.607235,153.360153 53.652863,153.142609 45.437931,153.142609 
	C45.437931,147.872787 45.437931,142.780792 45.437931,137.320129 
	C53.532356,137.320129 61.633282,136.966736 69.681831,137.462906 
	C73.978127,137.727768 77.011208,140.516373 76.981018,145.826813 
z"/>
<path fill="#323165" opacity="1.000000" stroke="none" 
	d="
M97.003586,128.369934 
	C97.003540,129.616470 97.003540,130.436432 97.003540,132.209793 
	C89.520645,124.258896 80.312843,122.439896 69.148994,121.733475 
	C81.622475,118.441345 91.177895,113.346123 97.003639,102.408821 
	C97.003639,110.920341 97.003639,119.431854 97.003586,128.369934 
z"/>
</svg>